<svg width="0" height="0" class="hidden">
  <symbol fill="none" xmlns="http://www.w3.org/2000/svg" viewBox="0 0 80 18" id="bitcoin">
    <path d="M16.4633 11.0212C15.3407 15.4804 10.8244 18.2185 6.33424 17.0972C1.87016 15.9758 -0.870944 11.4645 0.251603 6.97919C1.37415 2.51998 5.89045 -0.218139 10.3806 0.903184C14.8447 2.02451 17.5858 6.56195 16.4633 11.0212Z" fill="#F7931A"></path>
    <path d="M12.0253 7.81349C12.1819 6.69217 11.3465 6.11847 10.1979 5.70124L10.5633 4.18875L9.64964 3.95406L9.28415 5.41438C9.0492 5.36223 8.78815 5.31008 8.55319 5.23184L8.91867 3.74544L8.00497 3.51074L7.63949 5.02323C7.43065 4.97107 7.2479 4.94499 7.06516 4.89284L5.81209 4.57991L5.57714 5.57085C5.57714 5.57085 6.25589 5.72731 6.22979 5.72731C6.59527 5.83162 6.67358 6.06632 6.64748 6.24886L6.22979 7.96996C6.25589 7.96996 6.282 7.99603 6.33421 7.99603C6.3081 7.99603 6.282 7.96996 6.22979 7.96996L5.62935 10.3691C5.57714 10.4734 5.47272 10.6559 5.21166 10.5777C5.21166 10.6038 4.53291 10.4212 4.53291 10.4212L4.08911 11.4643L5.28998 11.7512C5.52493 11.8033 5.73377 11.8555 5.94262 11.9076L5.55103 13.4201L6.46474 13.6548L6.83021 12.1423C7.09127 12.2206 7.32623 12.2727 7.56118 12.3249L7.19569 13.8113L8.10939 14.046L8.50098 12.5335C10.0673 12.8203 11.2421 12.716 11.7381 11.3079C12.1297 10.1605 11.712 9.50852 10.9027 9.09128C11.477 9.03913 11.9208 8.62189 12.0253 7.81349ZM9.9368 10.7602C9.64963 11.9076 7.74392 11.2818 7.11738 11.1253L7.61339 9.11736C8.23992 9.27382 10.2501 9.56067 9.9368 10.7602ZM10.224 7.81349C9.9629 8.85659 8.37045 8.33504 7.84834 8.20465L8.29214 6.37924C8.84036 6.48355 10.485 6.71825 10.224 7.81349Z" fill="white"></path>
    <path d="M43.0651 12.6116C43.0651 11.6467 43.2217 10.7601 43.535 9.89952C43.8482 9.06505 44.292 8.30881 44.8664 7.68295C45.4407 7.0571 46.1455 6.56163 46.9809 6.19655C47.7902 5.83147 48.73 5.64893 49.7481 5.64893C50.3747 5.64893 50.949 5.70108 51.445 5.83147C51.941 5.96186 52.4109 6.11832 52.8025 6.30086L51.7322 8.75212C51.445 8.64782 51.1578 8.54351 50.8446 8.4392C50.5313 8.33489 50.1658 8.30881 49.722 8.30881C48.6778 8.30881 47.8424 8.67389 47.242 9.37798C46.6416 10.1081 46.3283 11.073 46.3283 12.2726C46.3283 13.0027 46.4849 13.5764 46.7982 14.0197C47.1115 14.463 47.6858 14.6717 48.5212 14.6717C48.9389 14.6717 49.3304 14.6195 49.6959 14.5413C50.0875 14.463 50.4269 14.3587 50.714 14.2283L50.949 16.7318C50.5574 16.8882 50.1136 17.0186 49.6437 17.149C49.1738 17.2533 48.5995 17.3316 47.9207 17.3316C47.0592 17.3316 46.3022 17.2012 45.7017 16.9404C45.1013 16.6796 44.6053 16.3406 44.2137 15.9234C43.8221 15.4801 43.535 14.9846 43.3522 14.4109C43.1434 13.8633 43.0651 13.2635 43.0651 12.6116ZM56.9533 17.3576C56.1963 17.3576 55.5697 17.2533 54.9954 17.0186C54.4472 16.7839 54.0034 16.471 53.6379 16.0798C53.2724 15.6626 53.0114 15.1932 52.8286 14.6456C52.6459 14.098 52.5676 13.4721 52.5676 12.7941C52.5676 11.9596 52.6981 11.0991 52.9852 10.2646C53.2463 9.43013 53.664 8.64781 54.2122 7.99588C54.7343 7.31787 55.4131 6.77025 56.1701 6.32694C56.9533 5.9097 57.8409 5.675 58.8329 5.675C59.5639 5.675 60.2165 5.77931 60.7648 6.01401C61.313 6.24871 61.7829 6.56163 62.1484 6.95279C62.5138 7.37003 62.7749 7.83942 62.9576 8.38704C63.1404 8.93466 63.2448 9.56052 63.2448 10.2385C63.2448 11.073 63.1143 11.9336 62.8532 12.768C62.5922 13.6025 62.2006 14.3587 61.6785 15.0367C61.1563 15.7148 60.5037 16.2624 59.7205 16.7057C58.9113 17.149 57.9975 17.3576 56.9533 17.3576ZM24.4778 5.70108C25.1565 5.70108 25.7308 5.83147 26.2269 6.06616C26.7229 6.30086 27.1406 6.63986 27.4538 7.03102C27.7671 7.44826 28.0282 7.91765 28.1848 8.46527C28.3414 9.0129 28.4197 9.61267 28.4197 10.2385C28.4197 11.2034 28.237 12.1422 27.8715 13.0027C27.506 13.8633 27.01 14.6195 26.4096 15.2714C25.7831 15.9234 25.0521 16.4188 24.2167 16.7839C23.3813 17.149 22.4676 17.3316 21.4756 17.3316C21.3451 17.3316 21.1362 17.3316 20.7969 17.3316C20.4836 17.3316 20.1181 17.2794 19.7004 17.2272C19.2827 17.1751 18.865 17.0968 18.3951 16.9665C17.9252 16.8622 17.5075 16.7057 17.0898 16.4971L20.7446 1.13756L24.0079 0.64209L22.7026 6.09224C22.9897 5.96186 23.2769 5.85755 23.538 5.80539C23.8512 5.75324 24.1645 5.70108 24.4778 5.70108ZM39.6974 5.93578H43.1956L42.569 8.51743H39.0709L38.1311 12.4029C38.0528 12.7159 38.0005 13.0288 37.9744 13.3156C37.9483 13.6025 38.0005 13.8372 38.0789 14.0458C38.1572 14.2544 38.3138 14.4109 38.5227 14.5152C38.7315 14.6195 39.0448 14.6977 39.4625 14.6977C39.8018 14.6977 40.1412 14.6717 40.4545 14.5934C40.7678 14.5413 41.081 14.437 41.4204 14.3327L41.6553 16.7318C41.2377 16.8882 40.7678 17.0186 40.2717 17.1229C39.7757 17.2272 39.2014 17.2794 38.5227 17.2794C37.5567 17.2794 36.7997 17.1229 36.2515 16.8361C35.7032 16.5492 35.3378 16.1581 35.1028 15.6626C34.8679 15.1671 34.7895 14.5934 34.8156 13.9415C34.8418 13.2896 34.9462 12.6116 35.1028 11.8814L37.1652 3.14551L40.4545 2.65004L39.6974 5.93578ZM31.8135 17.0447H28.6808L31.3175 5.93578H34.4763L31.8135 17.0447ZM66.6386 17.0447H63.5059L66.1425 5.93578H69.3013L66.6386 17.0447ZM71.5464 6.45732C71.7814 6.37909 72.0424 6.30086 72.3296 6.22263C72.6168 6.1444 72.93 6.04009 73.2955 5.96186C73.661 5.88363 74.0526 5.83147 74.4964 5.77931C74.9402 5.72716 75.4362 5.70108 76.0105 5.70108C77.6552 5.70108 78.8038 6.17048 79.4304 7.13533C80.0569 8.10019 80.1613 9.40405 79.7697 11.073L78.3339 17.0708H75.1751L76.5587 11.2034C76.6371 10.8383 76.7154 10.4732 76.7676 10.1342C76.8198 9.79522 76.8198 9.48229 76.7676 9.22152C76.7154 8.96074 76.5848 8.75212 76.376 8.59566C76.1671 8.4392 75.8539 8.36097 75.4362 8.36097C75.0185 8.36097 74.6008 8.41312 74.1831 8.49135L72.1208 17.0968H68.9881L71.5464 6.45732ZM21.7367 14.7499C22.2327 14.7499 22.7026 14.6195 23.1203 14.3848C23.5641 14.1501 23.9295 13.8372 24.2428 13.42C24.5561 13.0288 24.8171 12.5594 24.9999 12.0639C25.1826 11.5685 25.287 11.0208 25.287 10.4732C25.287 9.79521 25.1826 9.27367 24.9477 8.88251C24.7127 8.49135 24.295 8.30881 23.6946 8.30881C23.4857 8.30881 23.2508 8.33489 22.9114 8.41312C22.5982 8.49135 22.311 8.62174 22.0499 8.85643L20.6663 14.6456C20.7446 14.6717 20.823 14.6717 20.9013 14.6977C20.9535 14.7238 21.0318 14.7238 21.1101 14.7238C21.1884 14.7238 21.2668 14.7238 21.3712 14.7238C21.4756 14.7238 21.58 14.7499 21.7367 14.7499ZM58.5197 8.30881C58.0498 8.30881 57.6582 8.4392 57.2927 8.69997C56.9272 8.96074 56.64 9.29975 56.4051 9.71698C56.1701 10.1342 55.9874 10.5775 55.8569 11.0469C55.7264 11.5424 55.6741 11.9857 55.6741 12.429C55.6741 13.1331 55.7786 13.6807 56.0135 14.0719C56.2485 14.463 56.6401 14.6717 57.2405 14.6717C57.7104 14.6717 58.102 14.5413 58.4675 14.2805C58.8068 14.0197 59.1201 13.6807 59.355 13.2635C59.59 12.8463 59.7727 12.4029 59.9033 11.9336C60.0338 11.4381 60.086 10.9948 60.086 10.5515C60.086 9.84737 59.9816 9.29974 59.7466 8.90859C59.5378 8.51743 59.1201 8.30881 58.5197 8.30881ZM33.3276 4.60583C32.8838 4.60583 32.4922 4.47545 32.1529 4.21468C31.7874 3.9539 31.6307 3.56275 31.6307 3.01512C31.6307 2.72827 31.683 2.44142 31.8135 2.18065C31.944 1.91988 32.1006 1.68518 32.2834 1.50264C32.4922 1.3201 32.7011 1.16364 32.9621 1.05933C33.2232 0.955019 33.5104 0.902863 33.7975 0.902863C34.2413 0.902863 34.6329 1.03325 34.9723 1.29402C35.3117 1.55479 35.4944 1.94596 35.4944 2.49358C35.4944 2.78043 35.4422 3.06728 35.3117 3.32805C35.1811 3.58882 35.0245 3.82352 34.8418 4.00606C34.6329 4.1886 34.4241 4.34506 34.163 4.44937C33.9019 4.55368 33.6409 4.60583 33.3276 4.60583ZM68.1527 4.60583C67.7089 4.60583 67.3173 4.47545 66.9779 4.21468C66.6124 3.9539 66.4558 3.56275 66.4558 3.01512C66.4558 2.72827 66.508 2.44142 66.6386 2.18065C66.7691 1.91988 66.9257 1.68518 67.1085 1.50264C67.3173 1.3201 67.5261 1.16364 67.7872 1.05933C68.0483 0.955019 68.3354 0.902863 68.6226 0.902863C69.0664 0.902863 69.458 1.03325 69.7974 1.29402C70.1367 1.55479 70.3195 1.94596 70.3195 2.49358C70.3195 2.78043 70.2673 3.06728 70.1367 3.32805C70.0062 3.58882 69.8496 3.82352 69.6668 4.00606C69.458 4.1886 69.2491 4.34506 68.9881 4.44937C68.727 4.55368 68.4398 4.60583 68.1527 4.60583Z" fill="#4D4D4D"></path>
  </symbol>
  
  <symbol fill="none" xmlns="http://www.w3.org/2000/svg" viewBox="0 0 80 22" id="jeton">
    <path d="M19.7432 21.5258V0.474609H20.8042V21.5258H19.7432ZM30.9424 3.21968V3.11863H35.2031V13.6442C35.2031 16.5577 32.8117 18.9154 29.8646 18.9154C26.9174 18.9154 24.526 16.5577 24.526 13.6442H28.8036C28.8036 14.2336 29.2751 14.7052 29.8646 14.7052C30.454 14.7052 30.9256 14.2336 30.9256 13.6442V3.21968H30.9424ZM46.335 8.76034C46.8065 9.26557 47.177 9.87184 47.4128 10.5792C47.6486 11.2696 47.7833 12.0612 47.7833 12.9201C47.7833 13.1221 47.7833 13.3074 47.7665 13.4758C47.7496 13.6947 47.716 13.7958 47.6823 13.88L47.5644 14.1158H40.1881C40.2217 14.2842 40.2723 14.4357 40.3565 14.5873C40.4912 14.8568 40.6596 15.1094 40.8785 15.3115C41.0975 15.5136 41.3501 15.6651 41.6364 15.783C41.9227 15.9009 42.2258 15.9514 42.5458 15.9514C43.1857 15.9514 43.691 15.8167 44.0109 15.5304L44.1794 15.3788L47.3118 16.2377L46.9749 16.7261C46.6718 17.164 46.3182 17.5345 45.8803 17.8544C45.4424 18.1744 44.954 18.427 44.3983 18.6123C43.8425 18.7975 43.2194 18.8817 42.5626 18.8817C41.8048 18.8817 41.0638 18.747 40.3733 18.4776C39.6828 18.2081 39.0597 17.8208 38.5377 17.3155C38.0156 16.8103 37.5946 16.1872 37.2746 15.4462C36.9546 14.722 36.803 13.88 36.803 12.9537C36.803 12.0948 36.9546 11.2865 37.2577 10.5792C37.5609 9.87184 37.9651 9.26557 38.4703 8.7435C38.9755 8.23827 39.5649 7.83409 40.2217 7.56464C40.8785 7.27834 41.5859 7.14361 42.2932 7.14361C43.1352 7.14361 43.9099 7.27834 44.6004 7.5478C45.274 7.85093 45.8634 8.25512 46.335 8.76034ZM40.2891 11.4886H44.3814C44.3646 11.3875 44.3309 11.3033 44.2972 11.2023C44.213 10.9833 44.0783 10.7981 43.9099 10.6297C43.7415 10.4613 43.5226 10.3265 43.2531 10.2087C43.0005 10.1076 42.6805 10.0571 42.31 10.0571C41.99 10.0571 41.7037 10.1076 41.4511 10.2255C41.1985 10.3434 40.9796 10.4781 40.8112 10.6634C40.6259 10.8486 40.4912 11.0507 40.3733 11.2865C40.3396 11.337 40.3059 11.4212 40.2891 11.4886ZM66.7125 8.84455C67.2346 9.36662 67.6388 9.98973 67.9419 10.6971C68.2282 11.4044 68.3798 12.1791 68.3798 13.0211C68.3798 13.8631 68.2282 14.6378 67.9419 15.362C67.6556 16.0861 67.2346 16.7093 66.7125 17.2313C66.1904 17.7534 65.5673 18.1744 64.8769 18.4607C64.1695 18.747 63.3949 18.8986 62.5528 18.8986C61.7276 18.8986 60.9529 18.747 60.2456 18.4607C59.5383 18.1744 58.9152 17.7534 58.3931 17.2313C57.8879 16.7093 57.4668 16.0861 57.1805 15.362C56.8943 14.6547 56.7427 13.8631 56.7427 13.0211C56.7427 12.1791 56.8943 11.4044 57.1805 10.6971C57.4668 9.98973 57.871 9.36662 58.3931 8.84455C58.9152 8.32248 59.5214 7.90146 60.2456 7.61516C60.9529 7.32887 61.7276 7.1773 62.5528 7.1773C63.3949 7.1773 64.1695 7.32887 64.8769 7.61516C65.5673 7.90146 66.1904 8.32248 66.7125 8.84455ZM64.8263 14.2842C64.9611 13.9305 65.0284 13.5095 65.0284 13.0211C65.0284 12.5496 64.9611 12.1285 64.8263 11.7749C64.6916 11.4381 64.5064 11.1349 64.2706 10.8991C64.0517 10.6634 63.7822 10.495 63.4959 10.3939C63.1928 10.276 62.8728 10.2255 62.5528 10.2255C62.216 10.2255 61.9128 10.276 61.6097 10.3939C61.3234 10.5118 61.0708 10.6802 60.8519 10.8991C60.6329 11.1349 60.4477 11.4212 60.2961 11.7749C60.1614 12.1285 60.0772 12.5327 60.0772 13.0211C60.0772 13.4926 60.1446 13.9137 60.2961 14.2842C60.4308 14.6378 60.6161 14.941 60.8519 15.1767C61.0708 15.4125 61.3234 15.5809 61.6266 15.6988C61.9297 15.8167 62.2328 15.8841 62.5696 15.8841C62.8896 15.8841 63.2096 15.8167 63.5127 15.6988C63.799 15.5809 64.0685 15.4125 64.2874 15.1767C64.5064 14.9241 64.6916 14.6378 64.8263 14.2842ZM79.7474 9.97289C79.9158 10.5118 80 11.0844 80 11.6738V18.5786H76.6655V12.0948C76.6655 11.5559 76.5308 11.1012 76.2613 10.7307C76.0255 10.4108 75.6045 10.2423 74.9477 10.2423C74.3751 10.2423 73.9541 10.4108 73.6847 10.7813C73.3815 11.1854 73.2299 11.657 73.2299 12.2464V18.5786H69.8954V7.48043H73.1626V8.08671C73.3815 7.90146 73.6341 7.73305 73.9036 7.61516C74.5267 7.32887 75.1667 7.19414 75.8066 7.19414C76.4971 7.19414 77.1202 7.31202 77.6423 7.5478C78.1643 7.78357 78.619 8.12039 78.9559 8.54141C79.3095 8.94559 79.579 9.43398 79.7474 9.97289ZM54.6881 15.6651C54.907 15.6314 54.9575 15.6314 54.9744 15.6146L55.5133 15.4799V18.326L55.2438 18.427C55.1765 18.4439 55.0754 18.4944 54.7218 18.5786C54.4355 18.646 54.065 18.6796 53.5598 18.6796C52.4819 18.6796 51.6062 18.3765 50.9831 17.7534C50.36 17.1808 50.0232 16.3051 50.0232 15.2273V10.495H48.7432V7.48043H50.0232V4.34802H53.324V7.48043H55.4796V10.495H53.324V14.8231C53.324 15.1431 53.3913 15.3788 53.5092 15.4967C53.644 15.6146 53.8797 15.682 54.2165 15.682C54.385 15.6988 54.5365 15.682 54.6881 15.6651ZM1.10027 7.37939C1.01607 7.39623 0.931865 7.31202 0.982387 7.22782C1.99284 5.39216 3.72746 3.96068 5.93362 3.38809C8.13978 2.79866 10.3628 3.186 12.1648 4.28066C12.249 4.33118 12.2321 4.44907 12.1311 4.46591L1.10027 7.37939ZM14.6404 6.58786C15.1288 7.29518 15.4993 8.08671 15.735 8.94559C15.9708 9.80448 16.055 10.6802 15.9877 11.5223C15.9877 11.5728 15.954 11.6065 15.9034 11.6233L1.48762 15.4462C1.43709 15.463 1.40341 15.4462 1.36973 15.3957C0.898183 14.6883 0.510841 13.8968 0.275068 13.0379C0.0392955 12.1791 -0.0449091 11.3033 0.0224546 10.4613C0.0224546 10.4108 0.0561364 10.3771 0.106659 10.3602L14.5225 6.55418C14.573 6.53734 14.6235 6.55418 14.6404 6.58786ZM14.9098 14.621C14.994 14.6041 15.0782 14.6883 15.0277 14.7726C14.0173 16.6082 12.2826 18.0397 10.0765 18.6123C7.87033 19.2017 5.64732 18.8144 3.84534 17.7197C3.76114 17.6692 3.77798 17.5513 3.87903 17.5345L14.9098 14.621Z" fill="#FF6300"></path>
  </symbol>
  <symbol fill="none" xmlns="http://www.w3.org/2000/svg" viewBox="0 0 80 16" id="safetyPay">
    <path d="M30.7677 0.509766V3.49518C30.7677 3.61621 30.8077 3.6431 30.9144 3.6431H32.5681C32.6881 3.6431 32.7281 3.67 32.7281 3.79103C32.7148 4.11377 32.7148 4.43652 32.7281 4.75927C32.7281 4.89375 32.6881 4.90719 32.5681 4.90719H30.9144C30.8077 4.90719 30.7677 4.93409 30.7677 5.05512V9.08946C30.7677 9.25083 30.781 9.39876 30.821 9.56013C30.941 10.2863 31.5679 10.8108 32.288 10.8108C32.4481 10.8242 32.6081 10.8242 32.7548 10.8108C32.8348 10.8108 32.8482 10.8108 32.8482 10.8915V12.0883C32.8482 12.1421 32.8482 12.1824 32.7681 12.1959C31.8346 12.2766 30.941 12.169 30.1542 11.5773C29.5541 11.1066 29.3007 10.4477 29.2206 9.70806C29.194 9.45255 29.1806 9.19704 29.194 8.94153V5.10891C29.194 4.96098 29.154 4.93409 29.0206 4.93409C28.7672 4.94754 28.5138 4.93409 28.2604 4.93409C28.1671 4.93409 28.1404 4.90719 28.1404 4.81306V3.77758C28.1404 3.68344 28.1804 3.65655 28.2604 3.67C28.5138 3.67 28.7672 3.65655 29.0206 3.67C29.194 3.68344 29.2473 3.6431 29.2473 3.45483C29.234 2.55383 29.2473 1.63938 29.2473 0.738378C29.2473 0.671139 29.2606 0.617348 29.2606 0.550109L30.7677 0.509766Z" fill="#284F9B"></path>
    <path d="M19.3249 0.509806C19.4583 0.536701 19.485 0.630836 19.485 0.751866C19.4716 1.07461 19.4716 1.41081 19.485 1.73355C19.485 1.85458 19.4716 1.89493 19.3383 1.88148C19.0049 1.84114 18.6715 1.88148 18.3647 1.97561C17.7246 2.21768 17.3245 2.84972 17.3911 3.53556C17.4045 3.64314 17.4712 3.61625 17.5245 3.61625H19.1382C19.2716 3.61625 19.3116 3.65659 19.3116 3.79107C19.2983 4.10037 19.2983 4.40966 19.3116 4.71896C19.3116 4.85344 19.2849 4.89379 19.1516 4.88034C18.6314 4.86689 18.098 4.88034 17.5645 4.88034C17.4178 4.88034 17.3778 4.90723 17.3778 5.05516C17.3778 7.35473 17.3778 9.6543 17.3778 11.9404C17.3778 12.2094 17.4178 12.169 17.1511 12.169C16.7777 12.169 16.4042 12.1556 16.0442 12.169C15.8708 12.169 15.8574 12.1152 15.8574 11.9673V5.0955C15.8574 4.90723 15.8174 4.85344 15.6307 4.86689C15.404 4.88034 15.1773 4.86689 14.9506 4.86689C14.8705 4.86689 14.8439 4.85344 14.8439 4.75931V3.71038C14.8439 3.62969 14.8705 3.6028 14.9506 3.6028H15.6974C15.8174 3.6028 15.8574 3.5759 15.8574 3.45487C15.8441 2.9573 15.9375 2.47318 16.1375 2.01596C16.5243 1.1553 17.2178 0.72497 18.1113 0.550149C18.218 0.550149 18.3114 0.523254 18.4047 0.48291L19.3249 0.509806Z" fill="#284F9B"></path>
    <path d="M26.4733 9.88298C26.6734 10.2326 26.8468 10.5688 27.0468 10.8916C27.1001 10.9454 27.1001 11.0395 27.0468 11.0933C27.0335 11.1067 27.0201 11.1202 26.9935 11.1336C26.42 11.5909 25.7532 11.9136 25.0463 12.0615C23.6993 12.3574 22.4324 12.1691 21.3121 11.3353C20.3119 10.5957 19.8051 9.56023 19.6984 8.33649C19.5784 7.34135 19.8051 6.31932 20.3119 5.45866C20.9654 4.39628 21.9389 3.80458 23.1659 3.65666C23.9261 3.53563 24.6996 3.65666 25.3797 3.99285C26.3933 4.51731 26.9134 5.39142 27.1402 6.48069C27.2335 6.96481 27.2469 7.44893 27.2068 7.9465C27.1935 8.08098 27.1535 8.12132 27.0068 8.12132H21.4855C21.3254 8.12132 21.2854 8.16166 21.2988 8.32304C21.3788 9.70816 22.4991 10.7974 23.8727 10.8243C24.7396 10.8512 25.5931 10.5688 26.2866 10.0309C26.34 9.99056 26.4067 9.93677 26.4733 9.88298Z" fill="#284F9B"></path>
    <path d="M12.0966 10.5956C12.0033 10.7435 11.9099 10.9049 11.8032 11.0393C11.1364 11.9134 10.2429 12.2631 9.1626 12.169C8.58913 12.1286 8.04233 11.9134 7.60223 11.5638C6.58865 10.73 6.44195 9.21044 7.26881 8.1884C7.38884 8.04048 7.52221 7.906 7.66891 7.79842C8.26905 7.35464 8.94921 7.16637 9.66938 7.03189C10.3762 6.91086 11.0964 6.87052 11.8166 6.88397C11.9499 6.88397 11.9766 6.84362 11.9766 6.72259C11.9766 6.54777 11.9499 6.3595 11.9233 6.18468C11.7632 5.43161 11.2564 5.01472 10.4562 4.96093C9.61604 4.92059 8.78917 5.1492 8.09568 5.63332C7.94897 5.72746 7.90896 5.70056 7.84228 5.56608C7.69558 5.27023 7.53554 4.98783 7.36217 4.70543C7.30882 4.61129 7.32216 4.5575 7.40218 4.50371C8.08234 4.04648 8.86919 3.75063 9.68272 3.6565C10.3762 3.54892 11.0831 3.61615 11.7365 3.84477C12.7501 4.2213 13.2836 4.98783 13.4569 6.03676C13.5103 6.33261 13.5236 6.61501 13.5236 6.91086V12.0076C13.5236 12.169 13.4836 12.2093 13.3369 12.1958C12.9768 12.1824 12.6034 12.1824 12.2433 12.1958C12.0966 12.1958 12.07 12.1421 12.07 12.021C12.0966 11.5504 12.0833 11.0797 12.0966 10.5956Z" fill="#284F9B"></path>
    <path d="M32.9548 3.62966H34.6086C34.7153 3.62966 34.7153 3.71035 34.7419 3.77758C35.3021 5.22995 35.8489 6.68231 36.3957 8.13467C36.6624 8.76672 36.8891 9.42566 37.0758 10.0846C37.0891 10.1115 37.1025 10.1384 37.1158 10.1653C37.3692 9.11636 37.7826 8.16156 38.1294 7.16643C38.5428 6.03681 38.9563 4.9072 39.3697 3.76414C39.4097 3.65655 39.4497 3.61621 39.5697 3.61621C40.0765 3.62966 40.5833 3.61621 41.1034 3.61621C41.0101 3.85827 40.9167 4.07344 40.8367 4.30205C39.6498 7.34125 38.4495 10.3804 37.2492 13.4331C36.9958 14.092 36.609 14.6568 35.9956 15.0199C35.0487 15.5713 34.1018 15.5175 33.1549 14.9796C33.0482 14.9258 33.0482 14.872 33.1015 14.7779C33.2482 14.4686 33.3949 14.1727 33.515 13.85C33.5683 13.729 33.6083 13.7155 33.715 13.7827C34.4352 14.2265 35.1287 14.092 35.6355 13.46C35.7555 13.3121 35.8489 13.1507 35.9289 12.9893C36.0756 12.6666 36.2089 12.3304 36.3556 12.0076C36.3823 11.9404 36.3823 11.8597 36.3423 11.7925C35.4888 9.7753 34.6486 7.75813 33.795 5.74096C33.5283 5.10892 33.2616 4.46342 32.9948 3.83138C32.9682 3.75069 32.9548 3.6969 32.9548 3.62966Z" fill="#284F9B"></path>
    <path d="M5.14821 5.71415C4.53473 5.20314 3.74787 4.94763 2.94768 5.01487C2.70762 5.02832 2.46757 5.09556 2.25418 5.23003C1.85409 5.4452 1.69405 5.95621 1.92077 6.35965C1.97412 6.45378 2.0408 6.54792 2.13415 6.61516C2.38755 6.81687 2.68095 6.97825 2.97435 7.08583C3.46781 7.30099 3.96126 7.47582 4.44137 7.71788C4.80146 7.8927 5.13487 8.12131 5.41494 8.40371C6.20179 9.27782 6.14844 10.636 5.28157 11.4295C5.22822 11.4698 5.17488 11.5236 5.12153 11.5639C4.62808 11.9405 4.02794 12.1691 3.40112 12.196C2.20084 12.3036 1.01389 11.927 0.0936689 11.1336C-0.0263596 11.0395 -0.0263596 10.9588 0.0669959 10.8378C0.267044 10.5554 0.453755 10.2864 0.640466 10.004C0.707148 9.90987 0.733821 9.90987 0.827177 9.9771C1.48067 10.5554 2.32087 10.8647 3.18774 10.8243C3.46781 10.8109 3.7212 10.7302 3.96126 10.5823C4.50805 10.2192 4.54806 9.57367 4.02794 9.15679C3.78788 8.96852 3.52115 8.83404 3.24108 8.71301C2.76097 8.49785 2.26752 8.32303 1.80074 8.09441C1.50734 7.94649 1.22727 7.77167 0.973879 7.5565C0.093669 6.81687 -0.0396961 5.48554 0.707148 4.59799C0.81384 4.47696 0.933869 4.35593 1.06723 4.26179C1.54735 3.8987 2.13415 3.69699 2.72096 3.65664C3.64118 3.57596 4.52139 3.71043 5.33492 4.19455C5.80169 4.47696 5.80169 4.49041 5.5483 4.96108L5.14821 5.71415Z" fill="#284F9B"></path>
    <path d="M23.4992 6.96495H21.5254C21.3654 6.96495 21.3254 6.93805 21.3654 6.76323C21.7388 5.1226 23.2192 4.65193 24.2861 4.96123C25.0996 5.18984 25.4864 5.79499 25.6064 6.58841C25.6597 6.9515 25.6597 6.9515 25.2863 6.9515L23.4992 6.96495Z" fill="white"></path>
    <path d="M11.3231 8.08105H11.8832C11.9632 8.08105 12.0032 8.0945 12.0032 8.20208C12.0032 9.14343 11.7098 9.9503 10.9496 10.5554C10.4428 10.9723 9.73601 11.0799 9.12253 10.811C8.66909 10.6496 8.36235 10.2461 8.32234 9.76203C8.25566 9.26446 8.50905 8.78034 8.94916 8.55173C9.4026 8.28277 9.89605 8.20208 10.4028 8.13485C10.7229 8.0945 11.0163 8.08105 11.3231 8.08105Z" fill="white"></path>
    <path d="M50.0789 8.06749C50.0789 7.58337 50.0122 7.1127 49.8922 6.65547C49.2787 4.61141 47.9317 3.33387 45.8779 2.8094C45.5712 2.72871 45.2644 2.68837 44.9577 2.67492C44.891 2.67492 44.891 2.63458 44.891 2.59424V0.630859H44.9443C44.9843 0.644307 45.0377 0.644307 45.0777 0.630859H45.1844C45.3044 0.657755 45.4378 0.644307 45.5712 0.657755C46.2113 0.738442 46.8515 0.886367 47.4516 1.12843C48.2251 1.43773 48.9586 1.8815 49.5854 2.43286C50.3856 3.13215 51.0391 3.99281 51.4792 4.9745C51.8126 5.70068 52.026 6.4672 52.106 7.24717C52.1194 7.3682 52.106 7.48923 52.1327 7.61026V7.71785C52.1194 7.75819 52.1194 7.81198 52.1327 7.85232V8.08094C52.0927 8.10783 52.0527 8.12128 52.0127 8.10783H50.2256C50.1589 8.10783 50.1056 8.10783 50.0789 8.06749Z" fill="#284F9B"></path>
    <path d="M50.0789 8.06738H52.1194V8.2691C52.106 8.30944 52.1194 8.34979 52.106 8.37668C52.0927 8.40358 52.0927 8.45737 52.1194 8.48426V8.53806C52.0927 8.67253 52.106 8.80701 52.0927 8.94149C52.0394 9.37182 51.946 9.80215 51.826 10.2325C51.6259 10.9183 51.3192 11.5638 50.9191 12.1555C50.7057 12.4917 50.4523 12.801 50.1856 13.0969C49.7055 13.6213 49.1587 14.0785 48.5585 14.4416C47.6383 15.0064 46.6114 15.3561 45.5311 15.4771C45.4244 15.4906 45.3044 15.4771 45.1977 15.504H45.1577C45.1177 15.4906 45.0777 15.504 45.051 15.4906C45.011 15.4906 44.971 15.4771 44.9443 15.504H44.891V13.5406C44.891 13.4734 44.9043 13.4599 44.971 13.4599C47.3716 13.3524 49.4788 11.5504 49.9722 9.18355C50.0389 8.83391 50.0789 8.45737 50.0789 8.06738Z" fill="#009BD0"></path>
    <path d="M45.0644 0.630859C45.0244 0.657755 44.971 0.657755 44.931 0.630859H45.0644Z" fill="#5673AF"></path>
    <path d="M52.1194 7.85225C52.0927 7.81191 52.0927 7.75812 52.1194 7.71777V7.85225Z" fill="#6A83B9"></path>
    <path d="M52.0927 8.3903C52.0927 8.34995 52.0794 8.30961 52.106 8.28271V8.3903C52.106 8.40374 52.106 8.40374 52.0927 8.3903Z" fill="#4CB4DC"></path>
    <path d="M52.0927 8.39014H52.106V8.49772C52.0793 8.47082 52.106 8.43048 52.0927 8.39014Z" fill="#77C5E5"></path>
    <path d="M44.931 15.5173C44.971 15.4904 45.0111 15.5039 45.0377 15.5039V15.5173H44.931Z" fill="#40B0DB"></path>
    <path d="M45.0377 15.5173V15.5039C45.0777 15.5039 45.1177 15.477 45.1444 15.5173H45.0377Z" fill="#87CDE8"></path>
    <path d="M43.1707 8.08074V7.50249V5.13568V5.01465L43.6108 5.36429C44.731 6.25185 45.8646 7.1394 46.9849 8.02695C47.0116 8.0404 47.0382 8.05385 47.0382 8.08074C46.9982 8.10764 46.9449 8.12109 46.8915 8.10764H43.304C43.264 8.12109 43.2107 8.10764 43.1707 8.08074Z" fill="#284F9B"></path>
    <path d="M43.1706 8.08105H47.0382C46.9181 8.18864 46.7981 8.29622 46.6647 8.39035C45.5445 9.27791 44.4109 10.1655 43.2773 11.053C43.2506 11.0799 43.2106 11.0934 43.1839 11.1203C43.1572 11.0934 43.1706 11.0799 43.1706 11.0665V8.1214C43.1706 8.0945 43.1706 8.08105 43.1706 8.08105Z" fill="#009BD0"></path>
    <path d="M53.7731 15.3963C53.8664 14.8449 53.9598 14.307 54.0665 13.7556C54.4399 11.7385 54.8133 9.73474 55.2001 7.71757C55.4401 6.39969 55.6935 5.09525 55.9336 3.77737C55.9603 3.66979 55.9869 3.62944 56.107 3.62944C56.4804 3.64289 56.8671 3.64289 57.2406 3.62944C57.3873 3.62944 57.4006 3.68323 57.3739 3.80426C57.3073 4.23459 57.2006 4.66492 57.0805 5.0818C57.1739 5.06836 57.2006 5.00112 57.2406 4.94733C58.1608 3.73702 59.7745 3.29325 61.1882 3.85805C62.0817 4.22114 62.5885 4.93388 62.8019 5.84833C63.2287 7.66378 62.6419 10.0844 60.8548 11.3888C59.8812 12.0881 58.8143 12.3705 57.6273 12.0478C57.0005 11.8864 56.467 11.4561 56.187 10.8644C56.1736 10.8375 56.147 10.8106 56.1336 10.7702H56.1203C55.8669 12.3033 55.5602 13.8363 55.2668 15.3694L53.7731 15.3963Z" fill="#009BD0"></path>
    <path d="M71.0706 15.3967C70.9639 15.3429 70.8438 15.3026 70.7238 15.3026C70.4437 15.2219 70.1637 15.1009 69.9103 14.9395C69.8303 14.8857 69.8169 14.8453 69.8703 14.7647C70.057 14.4688 70.257 14.173 70.4437 13.8637C70.4971 13.783 70.5238 13.7695 70.6171 13.8233C71.2039 14.173 71.9508 14.1057 72.4575 13.635C72.7109 13.4199 72.9243 13.1509 73.0977 12.8551C73.2577 12.5861 73.4311 12.3037 73.6045 12.0348C73.6578 11.9541 73.6845 11.8465 73.6445 11.7389C73.0444 9.10314 72.4309 6.45393 71.8174 3.80471C71.7907 3.65679 71.7907 3.61644 71.9641 3.61644C72.3909 3.62989 72.8176 3.61644 73.2311 3.61644C73.3378 3.61644 73.3911 3.62989 73.4178 3.76437C73.7912 5.66051 74.1646 7.57009 74.538 9.47968C74.5914 9.74864 74.6181 10.0176 74.6581 10.3403C74.8848 9.85622 75.1115 9.42589 75.3516 8.99556C76.2985 7.26079 77.2454 5.52603 78.1922 3.79126C78.2456 3.67023 78.3523 3.603 78.4856 3.61644C78.9924 3.62989 79.4992 3.61644 79.9927 3.61644C80.0193 3.68368 79.966 3.72403 79.9393 3.76437C78.0322 7.01873 76.1118 10.2865 74.2046 13.5409C73.7912 14.2536 73.2444 14.8319 72.4709 15.1815C72.2575 15.2757 72.0174 15.3026 71.8041 15.3967H71.0706Z" fill="#009BD0"></path>
    <path d="M68.4833 10.6089C68.3899 10.73 68.3099 10.8375 68.2299 10.9317C67.603 11.6579 66.8295 12.142 65.8426 12.1958C65.2158 12.2496 64.589 12.0613 64.0689 11.6848C63.362 11.1603 63.122 10.2593 63.4287 9.29105C63.6554 8.56486 64.1356 8.0673 64.7757 7.71765C65.4559 7.35456 66.2027 7.1125 66.9629 7.01837C67.603 6.92423 68.2565 6.88389 68.91 6.89734C69.0434 6.89734 69.0967 6.857 69.1101 6.72252C69.1501 6.45356 69.1501 6.18461 69.1234 5.91565C69.0434 5.37774 68.6566 5.04154 68.0698 4.9743C67.1363 4.86672 66.3094 5.16257 65.5092 5.60635C65.2958 5.72738 65.2958 5.72738 65.2158 5.48532C65.1225 5.18947 65.0158 4.88017 64.9224 4.58432C64.8957 4.50363 64.8957 4.46329 64.9758 4.42294C66.1894 3.77745 67.4697 3.4547 68.8433 3.71021C69.8703 3.89848 70.4971 4.53053 70.6838 5.51222C70.7505 6.02323 70.7371 6.5477 70.6171 7.04526C70.297 8.71279 69.9769 10.3669 69.6569 12.0344C69.6302 12.1554 69.5902 12.1958 69.4702 12.1958C69.0967 12.1823 68.71 12.1958 68.3366 12.1958C68.2032 12.1958 68.1899 12.1689 68.2165 12.0344C68.2965 11.5772 68.3899 11.1065 68.4833 10.6089Z" fill="#009BD0"></path>
    <path d="M56.5739 8.64589C56.6139 7.50282 57.0006 6.48079 57.8675 5.68737C58.3476 5.2167 59.0011 4.97464 59.6679 5.00153C60.4681 5.04188 61.0416 5.4991 61.2416 6.26563C61.5617 7.46248 61.2016 9.31828 59.868 10.2731C59.4012 10.6362 58.8277 10.811 58.2409 10.7841C57.3874 10.7303 56.7872 10.1789 56.6272 9.29138C56.6005 9.07622 56.5739 8.86105 56.5739 8.64589Z" fill="white"></path>
    <path d="M68.2299 8.0542H68.7633C68.8434 8.0542 68.87 8.08109 68.8434 8.16178C68.6567 9.11657 68.1099 9.95034 67.323 10.5151C66.9229 10.7975 66.4295 10.932 65.936 10.8782C64.8558 10.7707 64.6691 9.82931 65.0425 9.14347C65.2159 8.86107 65.4559 8.6459 65.7493 8.51142C66.2561 8.28281 66.8029 8.13489 67.3497 8.09454C67.6564 8.06765 67.9498 8.0542 68.2299 8.0542Z" fill="white"></path>
  </symbol>
  <symbol fill="none" xmlns="http://www.w3.org/2000/svg" viewBox="0 0 80 20" id="payPal">
    <path d="M30.4664 8.60065C30.2592 10.155 29.0156 10.155 27.8757 10.155H27.254L27.7721 7.14987C27.7721 6.94261 27.9793 6.83899 28.1866 6.83899H28.4975C29.3265 6.83899 30.0519 6.83899 30.4664 7.2535C30.4664 7.668 30.4664 8.08251 30.4664 8.60065ZM29.9483 4.45557H25.4923C25.1814 4.45557 24.9742 4.66282 24.8706 4.9737L23.1089 16.3727C23.1089 16.5799 23.2125 16.7872 23.5234 16.7872H25.5959C25.9068 16.7872 26.1141 16.5799 26.2177 16.269L26.7358 13.1602C26.7358 12.8494 27.0467 12.6421 27.3576 12.6421H28.8084C31.7099 12.6421 33.368 11.1913 33.8861 8.39339C34.0933 7.14987 33.8861 6.21722 33.368 5.49184C32.5389 4.87007 31.3991 4.45557 29.9483 4.45557Z" fill="#263577"></path>
    <path d="M40.2073 12.7459C40.0001 13.9894 39.0674 14.8184 37.8239 14.8184C37.2021 14.8184 36.684 14.6112 36.3731 14.1967C36.0623 13.7822 35.9586 13.264 36.0622 12.7459C36.2695 11.5024 37.2021 10.6733 38.4457 10.6733C39.0674 10.6733 39.5856 10.8806 39.8964 11.2951C40.1037 11.606 40.3109 12.1241 40.2073 12.7459ZM43.1089 8.60081H41.0363C40.8291 8.60081 40.7254 8.70444 40.6218 8.91169L40.5182 9.53345L40.4146 9.3262C40.0001 8.70444 38.9638 8.39355 37.9275 8.39355C35.5441 8.39355 33.5752 10.1552 33.1607 12.6423C32.9534 13.8858 33.2643 15.0257 33.9897 15.8547C34.6115 16.5801 35.5441 16.891 36.684 16.891C38.5493 16.891 39.5855 15.6474 39.5855 15.6474L39.4819 16.2692C39.4819 16.4765 39.5856 16.6837 39.8964 16.6837H41.7617C42.0726 16.6837 42.2799 16.4765 42.3835 16.1656L43.5234 8.91169C43.5234 8.80806 43.4198 8.60081 43.1089 8.60081Z" fill="#263577"></path>
    <path d="M54.4041 8.60059H52.2279C52.0207 8.60059 51.8134 8.70421 51.7098 8.91147L48.8083 13.2638L47.5647 9.11872C47.4611 8.80784 47.2538 8.70421 46.943 8.70421H44.8704C44.6632 8.70421 44.4559 8.91147 44.5595 9.22235L46.943 16.0617L44.7668 19.1705C44.5595 19.3778 44.7668 19.7923 45.0777 19.7923H47.2539C47.4611 19.7923 47.6684 19.6887 47.772 19.4814L54.8186 9.22235C54.9222 8.91147 54.715 8.60059 54.4041 8.60059Z" fill="#263577"></path>
    <path d="M61.9688 8.60065C61.7616 10.155 60.5181 10.155 59.3782 10.155H58.7564L59.2745 7.14987C59.2745 6.94261 59.4818 6.83899 59.6891 6.83899H59.9999C60.829 6.83899 61.5543 6.83899 61.9688 7.2535C62.0725 7.668 62.0725 8.08251 61.9688 8.60065ZM61.4507 4.45557H56.9948C56.6839 4.45557 56.4766 4.66282 56.373 4.9737L54.6113 16.3727C54.6113 16.5799 54.715 16.7872 55.0259 16.7872H57.3056C57.5129 16.7872 57.7201 16.6835 57.7201 16.3727L58.2383 13.1602C58.2383 12.8494 58.5492 12.6421 58.86 12.6421H60.3108C63.2124 12.6421 64.8704 11.1913 65.3886 8.39339C65.5958 7.14987 65.3886 6.21722 64.8704 5.49184C64.145 4.87007 63.0051 4.45557 61.4507 4.45557Z" fill="#2199D6"></path>
    <path d="M71.8135 12.7459C71.6063 13.9894 70.6736 14.8184 69.4301 14.8184C68.8083 14.8184 68.2902 14.6112 67.9793 14.1967C67.6685 13.7822 67.5648 13.264 67.6684 12.7459C67.8757 11.5024 68.8083 10.6733 70.0519 10.6733C70.6736 10.6733 71.1918 10.8806 71.5026 11.2951C71.7099 11.606 71.9171 12.1241 71.8135 12.7459ZM74.7151 8.60081H72.6425C72.4353 8.60081 72.3316 8.70444 72.228 8.91169L72.1244 9.53345L72.0208 9.3262C71.6063 8.70444 70.57 8.39355 69.5337 8.39355C67.1503 8.39355 65.1814 10.1552 64.7669 12.6423C64.5596 13.8858 64.8705 15.0257 65.5959 15.8547C66.2177 16.5801 67.1503 16.891 68.2902 16.891C70.1555 16.891 71.1917 15.6474 71.1917 15.6474L71.0881 16.2692C71.0881 16.4765 71.1918 16.6837 71.5026 16.6837H73.3679C73.6788 16.6837 73.8861 16.4765 73.9897 16.1656L75.1296 8.91169C75.1296 8.80806 74.9223 8.60081 74.7151 8.60081Z" fill="#2199D6"></path>
    <path d="M77.2021 4.76645L75.3368 16.3727C75.3368 16.5799 75.4404 16.7872 75.7513 16.7872H77.6166C77.9275 16.7872 78.1347 16.5799 78.2384 16.269L80 4.87008C80 4.66282 79.8964 4.45557 79.5855 4.45557H77.513C77.4093 4.45557 77.3057 4.66282 77.2021 4.76645Z" fill="#2199D6"></path>
    <path d="M4.66317 18.9633L4.97403 16.7872H4.24865H0.621704L3.10876 0.932239C3.10876 0.932239 3.10875 0.828613 3.21238 0.828613H3.31601H9.43C11.3989 0.828613 12.8497 1.24312 13.5751 2.07214C13.886 2.48665 14.0932 2.90115 14.1968 3.31566C14.3005 3.8338 14.3005 4.35193 14.1968 5.07732V5.49183L14.5077 5.69908C14.8186 5.80271 15.0259 6.00996 15.2331 6.21722C15.544 6.5281 15.7512 6.94261 15.7512 7.46074C15.8549 7.97888 15.8549 8.60064 15.6476 9.32603C15.4404 10.155 15.2331 10.7768 14.9222 11.3986C14.6113 11.9167 14.1968 12.3312 13.7823 12.7457C13.3678 13.0566 12.7461 13.2638 12.2279 13.4711C11.6062 13.5747 10.9844 13.6784 10.259 13.6784H9.74088C9.43 13.6784 9.11912 13.782 8.80824 13.9892C8.60099 14.1965 8.39374 14.5074 8.29011 14.8183V15.0255L7.66834 18.8597V18.9633V19.067C7.66834 19.067 7.66833 19.067 7.56471 19.067H4.66317V18.9633Z" fill="#263577"></path>
    <path d="M14.9223 5.07764C14.9223 5.18126 14.9223 5.28489 14.8187 5.38852C13.9897 9.5336 11.2954 10.8807 7.77208 10.8807H6.01041C5.5959 10.8807 5.18141 11.1916 5.18141 11.6061L4.24875 17.4092L4.0415 19.0673C4.0415 19.3782 4.24875 19.5854 4.45601 19.5854H7.66845C8.08296 19.5854 8.39383 19.2745 8.39383 18.9637V18.7564L9.0156 15.0258V14.8186C9.11923 14.4041 9.43011 14.1968 9.74099 14.1968H10.2591C13.3679 14.1968 15.7513 12.9533 16.3731 9.32634C16.684 7.77194 16.4767 6.52842 15.7514 5.6994C15.5441 5.49215 15.2332 5.28489 14.9223 5.07764Z" fill="#2199D6"></path>
    <path d="M14.0933 4.76645C13.9897 4.76645 13.8861 4.66282 13.6788 4.66282C13.5752 4.66282 13.3679 4.55919 13.2643 4.55919C12.7462 4.45556 12.228 4.45557 11.7099 4.45557H6.94305C6.83942 4.45557 6.73579 4.45556 6.63217 4.55919C6.42491 4.66282 6.21767 4.87007 6.21767 5.07733L5.1814 11.5022V11.7095C5.28502 11.2949 5.59589 10.9841 6.0104 10.9841H7.77207C11.2954 10.9841 13.9897 9.53329 14.8187 5.49184C14.8187 5.38821 14.8187 5.28458 14.9223 5.18096C14.7151 5.07733 14.5078 4.9737 14.3006 4.87008C14.1969 4.76645 14.0933 4.76645 14.0933 4.76645Z" fill="#252C5E"></path>
    <path d="M6.21762 5.0775C6.21762 4.87024 6.42487 4.66299 6.63212 4.55936C6.73575 4.55936 6.83938 4.45574 6.943 4.45574H11.7098C12.228 4.45574 12.8497 4.45573 13.2642 4.55936C13.3679 4.55936 13.5751 4.55936 13.6788 4.66299C13.7824 4.66299 13.886 4.76662 14.0933 4.76662C14.1969 4.76662 14.1969 4.76662 14.3005 4.87024C14.5078 4.97387 14.715 5.0775 14.9223 5.18112C15.1295 3.62672 14.9223 2.59045 14.0933 1.65781C13.1606 0.621537 11.5026 0.207031 9.43004 0.207031H3.31606C2.90155 0.207031 2.48704 0.517909 2.48704 0.932417L0 16.891C0 17.2019 0.207254 17.5127 0.518135 17.5127H4.2487L5.18135 11.5024L6.21762 5.0775Z" fill="#263577"></path>
  </symbol>
  <symbol fill="none" xmlns="http://www.w3.org/2000/svg" viewBox="0 0 80 18" id="perfectMoney">
    <path fill-rule="evenodd" clip-rule="evenodd" d="M39.16 2.63481C39.72 2.91113 40.44 2.39797 40.32 4.17429L40.16 6.70062C40.16 7.25326 40.08 7.45063 40.08 7.92431C40.08 8.27958 40.04 8.87169 39.96 9.22695C39.84 10.2928 39.96 10.6085 38.76 10.727V11.0428C39.04 11.2007 41.16 11.1217 41.64 11.1217C41.92 11.1217 41.68 11.1217 41.88 11.0428C41.84 10.6085 41.68 10.727 41.24 10.648C40.84 10.5691 40.76 10.5296 40.72 10.1743C40.56 9.38485 40.84 5.31904 40.84 4.25324C41.08 4.49008 41.16 4.7664 41.28 5.08219C41.44 5.39798 41.52 5.59535 41.68 5.91115C41.84 6.22694 41.92 6.46378 42.04 6.77957C42.24 7.09536 42.32 7.29273 42.48 7.648C42.92 8.67432 43.84 10.1743 44.08 11.2007C44.56 11.1612 44.36 11.2007 44.68 10.4901C45.2 9.38485 45.52 8.87169 46 7.88484L47.72 4.45061C47.8 4.29272 47.76 4.41114 47.8 4.33219C47.8 5.12167 47.88 5.59535 47.88 6.38483C47.88 7.21378 48.04 9.93748 47.72 10.5691C47.48 10.6085 47.08 10.727 46.8 10.727V11.1217H50C50.28 11.1217 50.24 10.9638 50.24 10.727C50 10.727 49.76 10.6875 49.56 10.6085C48.96 10.4506 49.08 9.54275 49.08 8.5559C49.08 7.92431 49 7.56905 49 7.01642V3.38482C49 2.99008 49.2 2.79271 49.56 2.75323C50.16 2.63481 50.32 2.87165 50.16 2.24007C49.72 2.31902 48.28 2.43744 47.88 2.24007C47.84 2.79271 47.48 3.58218 47.24 4.05587C46.96 4.64798 46.68 5.16114 46.4 5.75325L44.52 9.18748C44.28 8.16116 41.48 3.8585 41.48 2.24007C41.08 2.43744 39.64 2.31902 39.2 2.24007C39.16 2.39797 39.16 2.39797 39.16 2.63481ZM74.52 3.46376C74.52 7.41115 80 6.97694 80 3.8585C80 2.91113 80 2.35849 79.12 1.56902C78.24 0.779537 76.72 0.621641 75.72 1.33217C75.04 1.84533 74.52 2.55586 74.52 3.46376ZM56.16 6.10852V6.38483C56.52 6.50325 56.72 6.77957 56.72 7.25326C56.72 7.72695 56.8 10.0954 56.6 10.4506C56.48 10.6875 56.12 10.6875 55.88 10.727V11.1217H58.36C58.64 11.1217 58.4 11.1217 58.6 11.0428C58.56 10.6085 58.28 10.648 57.88 10.5691C57.72 9.85854 57.8 8.08221 57.8 7.25326C57.8 6.34536 59.4 5.95062 60.08 6.81905C60.44 7.29273 60.36 9.81906 60.24 10.3322C60.16 10.5691 60.08 10.6875 59.44 10.727V11.0428C59.76 11.2007 61.72 11.1217 62.2 11.1217V10.727C61.08 10.6085 61.32 10.2138 61.32 7.92431C61.32 6.77957 61.4 5.63483 59.68 5.63483C59.16 5.63483 58.64 5.8322 58.24 6.06904C58.04 6.18746 58.04 6.18746 57.8 6.22694V5.47693C57.28 5.47693 56.72 5.95062 56.16 6.10852ZM1.56 2.71376C2.12 2.9506 2.72 2.63481 2.72 3.46376L2.8 6.85852H3.92V3.22692C3.92 2.67428 4.2 2.79271 4.76 2.79271C6.92 2.79271 7.36 5.6743 5.8 6.66115C4.52 7.45063 1.4 6.93747 0 6.93747L0.32 7.05589C2.68 7.60852 8.04 8.16116 8.04 4.7664C8.04 3.42429 7.08 2.59534 5.72 2.35849C4.48 2.12165 3.56 2.31902 2.4 2.31902C1.92 2.31902 1.6 2.24007 1.56 2.71376ZM17.72 5.79272C17.56 5.8322 17.32 5.95062 17.16 6.02957C16.92 6.18746 16.96 6.18746 17.04 6.46378C18.08 6.46378 17.72 6.38483 17.72 6.93747C17.72 7.33221 17.84 10.3717 17.64 10.5691C17.24 10.7664 16.92 10.5296 16.88 11.0428C17.2 11.1612 18.68 11.0822 19.32 11.1217C19.84 11.1217 19.76 11.2007 19.92 10.8849C19.52 10.3322 18.84 11.1612 18.84 9.77959C18.84 5.08219 18.48 6.89799 20.64 6.38483C20.76 5.91115 20.72 6.26641 20.64 5.79272C18.96 5.79272 18.84 5.99009 18.84 5.31904C18.84 4.25324 18.96 1.68744 20.44 2.27955C20.84 2.43744 21.04 2.9506 21.4 2.9506C21.88 2.9506 22.12 2.55586 21.96 2.16112C21.56 1.2927 18.48 1.05585 17.92 4.17429C17.84 4.60851 17.72 5.35851 17.72 5.79272Z" fill="#F00F0F"></path>
    <path fill-rule="evenodd" clip-rule="evenodd" d="M52.88 6.10871C55 6.10871 55.08 10.8061 53.12 10.8061C51.36 10.8061 51 8.08241 51.68 6.89819C51.88 6.50345 52.32 6.10871 52.88 6.10871ZM50.16 8.2403V8.79294C50.16 11.9903 55.8 12.3061 55.8 8.3982C55.8 4.56923 50.16 4.92449 50.16 8.2403ZM67.28 6.18766C67.92 6.22713 68.08 6.38503 68.32 6.89819L69.28 9.50347C69.84 10.964 69.88 11.1614 69 12.6614C68.8 12.9772 68.76 13.1745 68.28 13.1745C67.72 13.214 67.6 13.2535 67.6 13.8061C67.6 14.3193 67.92 14.3588 68.28 14.3588C69 14.3588 69.32 13.293 69.72 12.4245L71.88 7.92451C72.32 7.05609 72.52 6.22713 73.44 6.18766V5.79292H71V6.18766C71.28 6.18766 71.56 6.26661 71.8 6.30608C71.8 6.70082 71.36 7.68767 71.2 8.04293C71.04 8.35873 70.6 9.50347 70.4 9.62189L69.8 8.04293C69.68 7.6482 69.32 6.70082 69.28 6.30608C70.08 6.14819 69.92 6.18766 69.92 5.79292H67.52C67.24 5.79292 67.28 5.91134 67.28 6.18766ZM22.2 7.25346C20.84 7.25346 22.52 6.10871 23.12 6.10871C23.76 6.10871 24.08 6.4245 24.08 6.93766C24.08 7.29293 23.6 7.13503 23.24 7.17451C22.92 7.21398 22.6 7.25346 22.2 7.25346ZM20.56 8.47715C20.56 11.5561 23.36 11.6351 24.48 10.8456C24.84 10.6087 25.24 10.214 25.16 9.77979C24.28 9.81926 25.04 10.4114 23.44 10.4114C22.12 10.4114 21.32 8.75346 21.56 7.72714C22.64 7.72714 24.24 7.84556 25.16 7.6482C25.16 6.85872 25.16 6.62187 24.76 6.18766C23.88 5.27976 22.08 5.55608 21.28 6.50345C20.88 6.97714 20.56 7.6482 20.56 8.47715ZM64 7.25346H63.52C63.52 6.81924 63.72 6.66135 63.96 6.46398C64.64 5.91134 65.88 5.91134 65.88 6.93766C65.88 7.29293 65.4 7.13503 65.04 7.17451C64.72 7.21398 64.4 7.25346 64 7.25346ZM62.36 8.47715C62.36 9.42452 62.52 10.1351 63.2 10.7272C64.08 11.4377 65.52 11.3982 66.36 10.8061C66.44 10.7272 67.48 9.77979 66.8 9.77979C66.28 9.77979 66.72 10.4114 65.24 10.4114C64.08 10.4114 63.44 9.22715 63.28 8.16136C63.2 7.52977 63.48 7.72714 64.92 7.72714C65.6 7.72714 66.4 7.76662 66.96 7.6482C66.96 7.29293 67.16 6.85872 66.6 6.22713C65.72 5.24029 63.88 5.55608 63.08 6.50345C62.68 6.93766 62.36 7.68767 62.36 8.47715ZM8.84001 7.25346C8.92002 5.99029 11.24 5.63503 11.24 6.85872C11.24 7.37188 9.36002 7.25346 8.84001 7.25346ZM7.72002 8.2403C7.72002 9.10873 7.68002 9.93768 8.48002 10.6482C9.48002 11.5561 11.36 11.4772 12.16 10.3719C12.44 9.93768 12.36 9.54294 11.88 9.97716C10.48 11.2008 8.68002 9.85873 8.68002 7.92451C8.68002 7.56925 9.80002 7.72714 10.56 7.72714C12.16 7.72714 12.36 7.88504 12.36 7.17451C12.36 6.22713 11.44 5.63503 10.32 5.63503C8.92002 5.63503 7.72002 6.89819 7.72002 8.2403ZM25.56 8.31925V8.87189C25.56 11.0824 28.12 11.793 29.6 10.8456C29.84 10.6877 30.4 10.214 30.4 9.85873C30.4 9.58242 30.4 9.85873 30.32 9.62189C29.88 9.66136 30.08 9.77979 29.72 10.0561C28.68 10.8851 26.56 10.3324 26.56 8.08241C26.56 7.05609 27.28 6.18766 28.36 6.18766C29.28 6.18766 29.52 6.93766 29.84 6.93766C30.12 6.93766 30.36 6.50345 30.12 6.02976C29.92 5.59555 29.08 5.63503 28.6 5.63503C27.68 5.63503 26.96 5.95082 26.48 6.38503C26 6.77977 25.56 7.52977 25.56 8.31925ZM30.72 6.38503C30.92 6.50345 31.04 6.46398 31.4 6.46398V9.62189C31.4 12.2272 34.28 11.1219 34.28 10.5693C34.28 10.1745 34 10.4114 33.84 10.4903C33.6 10.6087 33.48 10.6482 33.12 10.5693C32.68 10.4114 32.48 9.93768 32.48 9.34557V6.46398C34.36 6.46398 34.48 6.66135 34.28 5.79292C32.4 5.79292 32.52 5.95082 32.48 5.31923C32.48 5.04292 32.48 4.80607 32.24 4.88502C31.96 5.00344 32 5.63503 31.04 5.99029C30.68 6.10871 30.72 5.99029 30.72 6.38503ZM12.88 6.22713C12.88 6.62187 13.36 6.46398 13.36 6.85872C13.36 7.76662 13.44 9.81926 13.28 10.5693C13.04 10.6087 12.84 10.6877 12.56 10.7272V11.1219H15.32C15.56 11.1219 15.52 10.964 15.56 10.7272C15.4 10.7272 14.92 10.6482 14.8 10.6087C14.56 10.5693 14.44 10.4114 14.44 10.0956V7.4903C14.44 7.09556 14.64 6.54293 15.08 6.54293C15.4 6.54293 15.76 6.85872 15.84 6.85872C17.08 6.85872 16.68 4.88502 15.04 5.91134C14.84 6.06924 14.72 6.26661 14.44 6.30608V5.47713C14.04 5.47713 13.68 5.75345 13.2 5.95082C13 6.02976 12.88 5.99029 12.88 6.22713ZM1.64001 10.7272V11.1219H5.24001V10.7272C3.68001 10.6877 3.92001 10.1351 3.92001 7.80609C3.28001 7.80609 3.36001 7.84556 2.80001 7.72714C2.80001 8.47715 2.72001 9.06926 2.72001 9.70084C2.72001 10.6087 2.44001 10.6482 1.64001 10.7272Z" fill="#F00F0F"></path>
    <path fill-rule="evenodd" clip-rule="evenodd" d="M50.48 15.1087C50.48 14.2403 51.48 14.2403 51.48 15.1087C51.48 15.8982 50.48 16.0166 50.48 15.1087ZM49.84 17.1219H50.48V16.0561C52.24 17.2009 52.72 13.964 51.24 13.964C50.48 13.964 50.84 14.0824 50.4 14.2008V13.964H49.84V17.1219ZM53.76 14.4377H53.84C54.08 14.4377 54.12 14.6351 54.2 14.793H53.36C53.4 14.5956 53.52 14.4377 53.76 14.4377ZM52.72 14.8719C52.72 15.5035 52.72 16.2535 53.92 16.2535C54.2 16.2535 54.48 16.214 54.68 16.1351L54.6 15.6614C54.12 15.7798 53.4 15.9377 53.36 15.2666H54.76C54.76 14.3982 54.72 13.964 53.68 13.964C53.2 13.964 52.72 14.4377 52.72 14.8719ZM41.48 15.3456C41.48 16.8061 42.84 16.0956 42.92 16.0956L43.52 16.1745V13.964H42.88C42.88 14.714 43.08 15.7403 42.52 15.7403C41.96 15.7403 42.12 14.5956 42.12 13.964H41.48V15.3456ZM60.24 14.4377H60.32C60.56 14.4377 60.64 14.5956 60.72 14.793H59.84C59.88 14.5956 60 14.4377 60.24 14.4377ZM59.24 15.0298C59.24 16.8061 61.16 16.2535 61.16 16.0561C61.16 15.5035 60.96 15.7403 60.52 15.7798C60.16 15.7798 59.88 15.6614 59.84 15.2666H61.32C61.32 13.3324 59.24 13.7272 59.24 15.0298ZM57.64 13.964H57.36V14.5166H57.64V16.1745H58.28V14.5166H58.76V13.964H58.28L58.36 13.5693C58.56 13.4508 58.56 13.4903 58.92 13.4903V12.9377C58.36 12.9377 57.68 12.8982 57.64 13.964ZM46.72 13.5693V13.964H46.4V14.5166H46.72C46.72 15.8982 46.6 16.2535 47.64 16.2535C47.96 16.2535 47.88 16.0956 47.88 15.7403C47.24 15.7403 47.36 15.6614 47.36 14.5166H47.88V13.964H47.36V13.4114C47.08 13.4903 47 13.5298 46.72 13.5693ZM64.52 13.5693V13.964H64.24V14.5166H64.52C64.52 15.7403 64.4 16.2535 65.48 16.2535C65.76 16.2535 65.72 16.0956 65.72 15.7403C65.08 15.7403 65.44 15.7798 65.24 15.6614C65.12 15.1087 65.16 15.1482 65.16 14.5166H65.72V13.964H65.16V13.4114C64.92 13.4903 64.8 13.5298 64.52 13.5693ZM44.36 14.5561C44.36 15.464 44.96 15.1087 45.32 15.5824C45.04 15.9772 45.04 15.8193 44.36 15.6614C44.32 15.8982 44.04 16.2535 45 16.2535C46 16.2535 46.2 15.3456 45.56 14.9509C45.4 14.8719 45.12 14.8324 45.04 14.714C44.84 14.5166 45.04 14.4377 45.28 14.4377C45.52 14.4377 45.4 14.4772 45.72 14.5166C45.8 14.3193 45.76 14.2008 45.84 14.043C45.52 14.0035 44.36 13.6877 44.36 14.5561ZM61.88 15.1087C61.88 15.8587 62.36 16.2535 63.12 16.2535C63.4 16.2535 63.44 16.214 63.68 16.1745V15.6614C62 16.0561 62.44 14.4377 63.2 14.4377C63.4 14.4377 63.28 14.4772 63.6 14.5166C63.88 13.8851 63.64 13.964 62.88 13.964C62.32 13.964 61.88 14.5166 61.88 15.1087ZM40 15.1877C40 15.9377 39.4 15.7009 39.16 15.6614C39.16 15.9772 39.12 15.9772 39.08 16.1745C41 16.6482 40.64 15.1877 40.64 13.1745H40V15.1877ZM55.56 16.1745H56.16C56.16 15.0298 56 14.714 56.6 14.5561C56.8 14.4772 56.8 14.793 56.8 13.964C56.36 13.964 56.36 14.0035 56.08 14.2008V13.964H55.56V16.1745Z" fill="black"></path>
    <path fill-rule="evenodd" clip-rule="evenodd" d="M76.8799 2.75319C77.0799 2.75319 77.0799 2.63477 77.0799 3.26635C77.0799 3.46372 77.0799 4.2532 76.9999 4.37162C76.9599 4.45057 76.8399 4.45057 76.7199 4.45057V4.52951H77.4399V4.45057C77.1599 4.45057 77.1599 4.49004 77.1599 3.89793V3.0295C77.2399 3.14793 77.3199 3.26635 77.3599 3.42424C77.3999 3.46372 77.4399 3.54267 77.4799 3.58214L77.9599 4.52951C77.9999 4.56899 77.9999 4.49004 78.0399 4.45057L78.5599 3.42424C78.5999 3.38477 78.7599 3.06898 78.7599 3.0295V4.21372C78.7599 4.45057 78.7199 4.41109 78.5199 4.45057V4.52951H79.2399V4.45057C78.9999 4.45057 78.9999 4.41109 78.9999 4.17425V2.87161C78.9999 2.71371 79.0799 2.75319 79.1999 2.75319V2.63477H78.7599C78.7599 2.63477 78.7599 2.67424 78.7199 2.67424L78.6799 2.83214C78.6399 2.87161 78.5999 2.95056 78.5599 3.0295C78.5599 3.06898 78.5199 3.14793 78.4799 3.1874C78.4399 3.26635 78.4399 3.3453 78.3999 3.38477C78.3199 3.50319 78.2799 3.66109 78.1999 3.77951C78.1999 3.85846 78.1599 3.89793 78.1199 3.97688C78.1199 4.01635 78.0399 4.13477 78.0399 4.17425L77.2799 2.63477H76.8799V2.75319Z" fill="#FEFDFD"></path>
    <path fill-rule="evenodd" clip-rule="evenodd" d="M75.56 2.75319H75.76C75.8 2.75319 75.8 2.83214 75.8 2.87161V3.58214C75.84 3.62161 76 3.58214 76.04 3.58214V2.71371C76.28 2.71371 76.4 2.71371 76.52 2.83214C76.64 2.91108 76.68 3.06898 76.68 3.26635C76.64 3.42424 76.56 3.54267 76.4 3.58214C76.2 3.70056 75.68 3.70056 75.44 3.66109C75.4 3.62161 75.32 3.62161 75.28 3.62161C75.36 3.66109 75.52 3.70056 75.6 3.70056C75.76 3.74004 75.92 3.74004 76.04 3.74004C76.4 3.74004 76.8 3.70056 76.92 3.3453C76.96 3.22687 76.96 3.10845 76.92 2.99003C76.84 2.79266 76.64 2.67424 76.4 2.63477H75.56V2.75319ZM75.56 4.45057V4.52951H76.28V4.45057C76 4.45057 76.04 4.45057 76.04 4.01635V3.81898H75.8V4.21372C75.8 4.45057 75.76 4.41109 75.56 4.45057Z" fill="#FEFDFD"></path>
  </symbol>
  <symbol fill="none" xmlns="http://www.w3.org/2000/svg" viewBox="0 0 42 42" id="ArrowUP">
    <path d="M12.8795 20.7197L12.8803 20.7205C13.3631 21.2028 14.0176 21.4736 14.7 21.4736C15.3824 21.4736 16.0369 21.2028 16.5197 20.7205L16.5201 20.7201L18.425 18.8152V29.4C18.425 30.0829 18.6963 30.7379 19.1792 31.2208C19.6621 31.7037 20.3171 31.975 21 31.975C21.6829 31.975 22.3379 31.7037 22.8208 31.2208C23.3037 30.7379 23.575 30.0829 23.575 29.4V18.8152L25.469 20.7092C25.702 20.9554 25.9814 21.1533 26.2913 21.2914C26.6071 21.4321 26.9481 21.5078 27.2939 21.5139C27.6396 21.52 27.983 21.4564 28.3037 21.3269C28.6243 21.1974 28.9156 21.0046 29.1601 20.7601C29.4046 20.5156 29.5974 20.2243 29.7269 19.9037C29.8564 19.583 29.92 19.2396 29.9139 18.8939C29.9078 18.5481 29.8321 18.2071 29.6914 17.8913C29.5533 17.5815 29.3555 17.302 29.1092 17.069L22.8201 10.7799L22.8197 10.7795C22.3369 10.2972 21.6824 10.0264 21 10.0264C20.3176 10.0264 19.6631 10.2972 19.1803 10.7795L19.1799 10.7799L12.8799 17.0799L12.8795 17.0803C12.3972 17.5631 12.1264 18.2176 12.1264 18.9C12.1264 19.5824 12.3972 20.2369 12.8795 20.7197ZM21 1C32.046 1 41 9.95399 41 21C41 32.046 32.046 41 21 41C9.95399 41 1 32.046 1 21C1 9.95399 9.95399 1 21 1Z" stroke="#FFF72E" stroke-width="2"></path>
  </symbol>
  <symbol fill="none" xmlns="http://www.w3.org/2000/svg" viewBox="0 0 65 18" id="elementRight">
    <path d="M24.5 9H64M24.5 9L17 1.5M24.5 9L17 16.5" stroke="#FFF72E"></path>
    <path d="M25 5H45" stroke="#FFF72E"></path>
    <path d="M25 13H45" stroke="#FFF72E"></path>
    <rect x="10.1006" y="0.807693" width="11.5146" height="11.5146" transform="rotate(45 10.1006 0.807693)" stroke="#FFF72E"></rect>
    <rect x="10.1006" y="0.807693" width="11.5146" height="11.5146" transform="rotate(45 10.1006 0.807693)" stroke="#FFF72E"></rect>
  </symbol>
  <symbol fill="none" xmlns="http://www.w3.org/2000/svg" viewBox="0 0 20 21" id="check">
    <path d="M10 0.5C4.48 0.5 0 4.98 0 10.5C0 16.02 4.48 20.5 10 20.5C15.52 20.5 20 16.02 20 10.5C20 4.98 15.52 0.5 10 0.5ZM10 18.5C5.59 18.5 2 14.91 2 10.5C2 6.09 5.59 2.5 10 2.5C14.41 2.5 18 6.09 18 10.5C18 14.91 14.41 18.5 10 18.5ZM14.59 6.08L8 12.67L5.41 10.09L4 11.5L8 15.5L16 7.5L14.59 6.08Z" fill="#FFF72E"></path>
  </symbol>
  <symbol fill="none" xmlns="http://www.w3.org/2000/svg" viewBox="0 0 65 18" id="elementLeft">
    <path d="M40.5 9H1M40.5 9L48 1.5M40.5 9L48 16.5" stroke="#FFF72E"></path>
    <path d="M40 5H20" stroke="#FFF72E"></path>
    <path d="M40 13H20" stroke="#FFF72E"></path>
    <rect y="0.707107" width="11.5146" height="11.5146" transform="matrix(-0.707107 0.707107 0.707107 0.707107 54.3994 0.307693)" stroke="#FFF72E"></rect>
    <rect y="0.707107" width="11.5146" height="11.5146" transform="matrix(-0.707107 0.707107 0.707107 0.707107 54.3994 0.307693)" stroke="#FFF72E"></rect>
  </symbol>
  <symbol fill="none" xmlns="http://www.w3.org/2000/svg" viewBox="0 0 24 24" id="donation">
    <g clip-path="url(#clip0_30004_443)">
      <mask id="mask0_30004_443" maskUnits="userSpaceOnUse" x="-1" y="0" width="25" height="24">
        <path d="M-0.00259399 3.8147e-06H23.9974V24H-0.00259399V3.8147e-06Z" fill="white"></path>
      </mask>
      <g mask="url(#mask0_30004_443)">
        <path d="M3.96359 6.23218C4.72958 6.64009 5.17428 6.99352 5.56194 7.62334C6.48589 9.12207 7.33283 9.14865 8.32315 9.76651L11.3977 11.6838C11.938 12.02 12.3867 12.1635 12.6854 11.6014C12.9841 11.0394 12.708 9.87146 12.0721 9.21244L10.3702 7.44526C9.97859 6.98419 10.2441 6.69591 10.8933 6.58693C12.6323 6.29593 13.0346 7.05066 13.8072 8.37802M17.0981 9.33469L15.2409 6.05813C14.1948 4.11559 12.2991 4.20324 10.337 3.96943C8.16917 3.7103 8.00323 3.44195 6.00931 2.38163" stroke="white" stroke-width="0.94575" stroke-miterlimit="10" stroke-linecap="round" stroke-linejoin="round"></path>
        <path d="M1.24072 6.1878L2.75408 6.99433C3.09922 7.17766 3.53071 7.04481 3.71389 6.70066L6.04236 2.31733C6.22555 1.97317 6.09416 1.54005 5.74897 1.35798L4.23561 0.5515C3.89047 0.368125 3.45899 0.499657 3.2758 0.845125L0.947332 5.2285C0.764144 5.57261 0.895582 6.00442 1.24072 6.1878Z" stroke="white" stroke-width="0.94575" stroke-miterlimit="10" stroke-linecap="round" stroke-linejoin="round"></path>
        <path d="M6.81516 13.7428H23.1304V22.5228C23.1304 23.0768 22.6764 23.5312 22.1228 23.5312H7.82273C7.26919 23.5312 6.81516 23.0768 6.81516 22.5228V13.7428Z" stroke="white" stroke-width="0.94575" stroke-miterlimit="10" stroke-linecap="round" stroke-linejoin="round"></path>
        <path d="M12.708 13.7428C12.1212 13.2459 11.7509 12.5576 11.6407 11.8229M12.266 9.44186C13.1806 8.26595 14.8321 7.88195 16.1915 8.60477C17.7115 9.41528 18.2889 11.3047 17.4805 12.8274C17.2893 13.1874 17.0371 13.4943 16.745 13.7428" stroke="white" stroke-width="0.94575" stroke-miterlimit="10" stroke-linecap="round" stroke-linejoin="round"></path>
        <path d="M14.025 16.5208H23.1304M6.81516 16.5208H9.81937" stroke="white" stroke-width="0.94575" stroke-miterlimit="10" stroke-linecap="round" stroke-linejoin="round"></path>
        <path d="M10.4975 21.2207H19.4476V18.8304H10.4975V21.2207Z" stroke="white" stroke-width="0.94575" stroke-miterlimit="10" stroke-linecap="round" stroke-linejoin="round"></path>
        <path d="M11.9247 16.5208H11.9219" stroke="white" stroke-width="0.94575" stroke-miterlimit="10" stroke-linecap="round" stroke-linejoin="round"></path>
      </g>
    </g>
    <defs>
      <clipPath id="clip0_30004_443">
        <rect width="24" height="24" fill="white"></rect>
      </clipPath>
    </defs>
  </symbol>
  <symbol fill="none" xmlns="http://www.w3.org/2000/svg" viewBox="0 0 24 24" id="cash-withdrawal">
    <g clip-path="url(#clip0_30004_367)">
      <path d="M22.1213 2H1.87865C0.842764 2 0 2.83591 0 3.86337V14.3016C0 15.329 0.842764 16.1649 1.87865 16.1649H7.1533V21.5341C7.1533 21.7914 7.36358 22 7.62299 22H16.3923C16.6517 22 16.862 21.7914 16.862 21.5341V16.1649H22.1213C23.1572 16.1649 24 15.329 24 14.3016V3.86337C24 2.83591 23.1572 2 22.1213 2ZM15.9226 9.53924V18.5776C14.6301 18.7601 13.6074 19.7826 13.4353 21.0683H10.5828C10.4106 19.7817 9.38651 18.7587 8.09267 18.5772V9.53924H15.9226ZM8.09263 19.5224C8.86765 19.6848 9.47745 20.2962 9.63167 21.0683H8.09263V19.5224ZM14.3864 21.0683C14.5404 20.2971 15.1489 19.6864 15.9226 19.523V21.0683H14.3864ZM23.0606 14.3016C23.0606 14.8153 22.6393 15.2332 22.1213 15.2332H16.8619V14.2061H19.726C20.7619 14.2061 21.6046 13.3702 21.6046 12.3427V5.82223C21.6046 4.79477 20.7619 3.95886 19.726 3.95886H14.1124C13.853 3.95886 13.6427 4.16743 13.6427 4.42473C13.6427 4.68198 13.853 4.89059 14.1124 4.89059H19.726C20.244 4.89059 20.6653 5.30852 20.6653 5.82227V12.3427C20.6653 12.8565 20.244 13.2744 19.726 13.2744H16.8619V9.53929H19.3111C19.5705 9.53929 19.7808 9.33072 19.7808 9.07342C19.7808 8.81613 19.5706 8.60756 19.3111 8.60756H4.68885C4.42944 8.60756 4.21916 8.81613 4.21916 9.07342C4.21916 9.33072 4.42944 9.53929 4.68885 9.53929H7.1533V13.2744H4.27396C3.75604 13.2744 3.33463 12.8565 3.33463 12.3427V5.82223C3.33463 5.30847 3.75604 4.89054 4.27396 4.89054H9.88761C10.147 4.89054 10.3573 4.68198 10.3573 4.42468C10.3573 4.16743 10.147 3.95882 9.88761 3.95882H4.27396C3.23807 3.95882 2.39531 4.79472 2.39531 5.82218V12.3427C2.39531 13.3701 3.23807 14.206 4.27396 14.206H7.1533V15.2332H1.87865C1.36073 15.2332 0.939326 14.8153 0.939326 14.3015V3.86337C0.939326 3.34961 1.36073 2.93168 1.87865 2.93168H22.1213C22.6392 2.93168 23.0606 3.34961 23.0606 3.86337V14.3016H23.0606Z" fill="white"></path>
      <path d="M11.5 17C12.8785 17 14 15.8785 14 14.5C14 13.1215 12.8785 12 11.5 12C10.1215 12 9 13.1215 9 14.5C9 15.8785 10.1215 17 11.5 17ZM11.5 12.8628C12.4028 12.8628 13.1372 13.5973 13.1372 14.5C13.1372 15.4028 12.4027 16.1372 11.5 16.1372C10.5972 16.1372 9.8628 15.4027 9.8628 14.5C9.8628 13.5973 10.5972 12.8628 11.5 12.8628Z" fill="white"></path>
      <path d="M12.5 5C12.7761 5 13 4.77614 13 4.5C13 4.22386 12.7761 4 12.5 4C12.2239 4 12 4.22386 12 4.5C12 4.77614 12.2239 5 12.5 5Z" fill="white"></path>
    </g>
    <defs>
      <clipPath id="clip0_30004_367">
        <rect width="24" height="24" fill="white"></rect>
      </clipPath>
    </defs>
  </symbol>
  <symbol fill="none" xmlns="http://www.w3.org/2000/svg" viewBox="0 0 24 24" id="calendar">
    <g clip-path="url(#clip0_30004_413)">
      <path d="M10.9033 2.90625H5.29391" stroke="white" stroke-width="0.9375" stroke-miterlimit="10" stroke-linecap="round" stroke-linejoin="round"></path>
      <path d="M18.7635 2.90625H13.1542" stroke="white" stroke-width="0.9375" stroke-miterlimit="10" stroke-linecap="round" stroke-linejoin="round"></path>
      <mask id="mask0_30004_413" maskUnits="userSpaceOnUse" x="-1" y="0" width="25" height="24">
        <path d="M-0.0027771 3.8147e-06H23.9972V24H-0.0027771V3.8147e-06Z" fill="white"></path>
      </mask>
      <g mask="url(#mask0_30004_413)">
        <path d="M2.99982 2.90625H1.96857C1.14014 2.90625 0.468567 3.57783 0.468567 4.40625V22.0313C0.468567 22.8597 1.14014 23.5312 1.96857 23.5312H22.0311C22.8595 23.5312 23.5311 22.8597 23.5311 22.0313V4.40625C23.5311 3.57783 22.8595 2.90625 22.0311 2.90625H21.0936" stroke="white" stroke-width="0.9375" stroke-miterlimit="10" stroke-linecap="round" stroke-linejoin="round"></path>
        <path d="M14.1092 8.53125H23.5311" stroke="white" stroke-width="0.9375" stroke-miterlimit="10" stroke-linecap="round" stroke-linejoin="round"></path>
        <path d="M0.468597 8.53125H9.89047" stroke="white" stroke-width="0.9375" stroke-miterlimit="10" stroke-linecap="round" stroke-linejoin="round"></path>
        <path d="M4.02866 5.15625C3.46044 5.15625 2.99985 4.69566 2.99985 4.12744V1.49756C2.99985 0.929345 3.46044 0.468751 4.02866 0.468751C4.59688 0.468751 5.05747 0.929345 5.05747 1.49756V4.12744C5.05747 4.69566 4.59688 5.15625 4.02866 5.15625Z" stroke="white" stroke-width="0.9375" stroke-miterlimit="10" stroke-linecap="round" stroke-linejoin="round"></path>
        <path d="M19.9717 5.15625C19.4035 5.15625 18.9429 4.69566 18.9429 4.12744V1.49756C18.9429 0.929345 19.4035 0.468751 19.9717 0.468751C20.5399 0.468751 21.0005 0.929345 21.0005 1.49756V4.12744C21.0005 4.69566 20.5399 5.15625 19.9717 5.15625Z" stroke="white" stroke-width="0.9375" stroke-miterlimit="10" stroke-linecap="round" stroke-linejoin="round"></path>
        <path d="M12.0061 5.15625C11.4379 5.15625 10.9773 4.69566 10.9773 4.12744V1.49756C10.9773 0.929345 11.4379 0.468751 12.0061 0.468751C12.5743 0.468751 13.0349 0.929345 13.0349 1.49756V4.12744C13.0349 4.69566 12.5743 5.15625 12.0061 5.15625Z" stroke="white" stroke-width="0.9375" stroke-miterlimit="10" stroke-linecap="round" stroke-linejoin="round"></path>
        <path d="M0.468597 8.53125V20.1563C0.468597 20.9847 1.14018 21.6562 1.9686 21.6562H22.0311C22.8595 21.6562 23.5311 20.9847 23.5311 20.1563V8.53125" stroke="white" stroke-width="0.9375" stroke-miterlimit="10" stroke-linecap="round" stroke-linejoin="round"></path>
        <path d="M12.5502 11.4003L13.4631 13.2502L15.5045 13.5468C16.0026 13.6192 16.2015 14.2313 15.8411 14.5826L14.3639 16.0225L14.7126 18.0557C14.7977 18.5518 14.277 18.9301 13.8315 18.6958L12.0056 17.7359L10.1797 18.6958C9.73421 18.9301 9.21352 18.5518 9.2986 18.0557L9.6473 16.0225L8.17013 14.5826C7.80971 14.2313 8.0086 13.6192 8.5067 13.5468L10.5481 13.2502L11.461 11.4003C11.6838 10.949 12.3274 10.949 12.5502 11.4003Z" stroke="white" stroke-width="0.9375" stroke-miterlimit="10" stroke-linecap="round" stroke-linejoin="round"></path>
      </g>
    </g>
    <defs>
      <clipPath id="clip0_30004_413">
        <rect width="24" height="24" fill="white"></rect>
      </clipPath>
    </defs>
  </symbol>
  <symbol fill="none" xmlns="http://www.w3.org/2000/svg" viewBox="0 0 24 24" id="worldwide">
    <g clip-path="url(#clip0_30004_377)">
      <mask id="mask0_30004_377" maskUnits="userSpaceOnUse" x="0" y="0" width="24" height="24">
        <path d="M0 3.8147e-06H24V24H0V3.8147e-06Z" fill="white"></path>
      </mask>
      <g mask="url(#mask0_30004_377)">
        <path d="M20.6896 6C22.1387 7.88623 23 10.2469 23 12.8085C23 18.9894 17.9853 24 11.7994 24C9.24229 24 6.88534 23.1438 5 21.7026" stroke="white" stroke-width="0.9375" stroke-miterlimit="10" stroke-linecap="round" stroke-linejoin="round"></path>
        <path d="M5 2.76748C6.92446 1.65404 9.27277 1 11.8074 1C14.5138 1 17.0077 1.74564 19 3" stroke="white" stroke-width="0.9375" stroke-miterlimit="10" stroke-linecap="round" stroke-linejoin="round"></path>
        <path d="M2 19C0.745284 17.1204 0 14.7714 0 12.2231C0 9.91932 0.609129 7.77846 1.65307 6" stroke="white" stroke-width="0.9375" stroke-miterlimit="10" stroke-linecap="round" stroke-linejoin="round"></path>
        <path d="M15 17.7563C14.3799 21.4677 13.1397 24 11.7108 24C9.66137 24 8 18.7904 8 12.3641C8 11.5541 8.02638 10.7634 8.07662 10" stroke="white" stroke-width="0.9375" stroke-miterlimit="10" stroke-linecap="round" stroke-linejoin="round"></path>
        <path d="M8 7.2637C8.61864 3.54142 9.86021 1 11.291 1C13.3394 1 15 6.20921 15 12.6351C15 13.4454 14.9736 14.2364 14.9233 15" stroke="white" stroke-width="0.9375" stroke-miterlimit="10" stroke-linecap="round" stroke-linejoin="round"></path>
        <path d="M1 16H13.7945" stroke="white" stroke-width="0.9375" stroke-miterlimit="10" stroke-linecap="round" stroke-linejoin="round"></path>
        <path d="M9.5517 8.66658H22.175" stroke="white" stroke-width="0.9375" stroke-miterlimit="10" stroke-linecap="round" stroke-linejoin="round"></path>
        <path d="M0.824493 8.66658H6.35671" stroke="white" stroke-width="0.9375" stroke-miterlimit="10" stroke-linecap="round" stroke-linejoin="round"></path>
        <path d="M16.6114 16.3334C16.6114 15.5072 15.9416 14.8374 15.1153 14.8374C14.289 14.8374 13.6192 15.5072 13.6192 16.3334C13.6192 17.1596 14.289 17.8293 15.1153 17.8293C15.9416 17.8293 16.6114 17.1596 16.6114 16.3334Z" stroke="white" stroke-width="0.9375" stroke-miterlimit="10" stroke-linecap="round" stroke-linejoin="round"></path>
        <path d="M9.34692 8.66658C9.34692 7.84038 8.67709 7.17061 7.85083 7.17061C7.02456 7.17061 6.35474 7.84038 6.35474 8.66658C6.35474 9.49277 7.02456 10.1625 7.85083 10.1625C8.67709 10.1625 9.34692 9.49277 9.34692 8.66658Z" stroke="white" stroke-width="0.9375" stroke-miterlimit="10" stroke-linecap="round" stroke-linejoin="round"></path>
        <path d="M21.1286 4.36569C21.1286 3.5395 20.4588 2.86973 19.6325 2.86973C18.8063 2.86973 18.1364 3.5395 18.1364 4.36569C18.1364 5.19188 18.8063 5.86165 19.6325 5.86165C20.4588 5.86165 21.1286 5.19188 21.1286 4.36569Z" stroke="white" stroke-width="0.9375" stroke-miterlimit="10" stroke-linecap="round" stroke-linejoin="round"></path>
        <path d="M4.85864 20.6343C4.85864 19.8081 4.18881 19.1383 3.36255 19.1383C2.53628 19.1383 1.86646 19.8081 1.86646 20.6343C1.86646 21.4605 2.53628 22.1302 3.36255 22.1302C4.18881 22.1302 4.85864 21.4605 4.85864 20.6343Z" stroke="white" stroke-width="0.9375" stroke-miterlimit="10" stroke-linecap="round" stroke-linejoin="round"></path>
        <path d="M16.6104 16.3334H22.1742" stroke="white" stroke-width="0.9375" stroke-miterlimit="10" stroke-linecap="round" stroke-linejoin="round"></path>
      </g>
    </g>
    <defs>
      <clipPath id="clip0_30004_377">
        <rect width="24" height="24" fill="white"></rect>
      </clipPath>
    </defs>
  </symbol>
  <symbol fill="none" xmlns="http://www.w3.org/2000/svg" viewBox="0 0 24 24" id="dice">
    <g clip-path="url(#clip0_30004_352)">
      <path d="M22.4207 10.1376H17.9474C18.1731 9.85805 18.2959 9.51272 18.2959 9.14836C18.2959 8.72667 18.1317 8.33025 17.8336 8.03213L15.4159 5.6145C15.2329 5.4315 14.9361 5.4315 14.753 5.6145C14.5699 5.79755 14.5699 6.09436 14.753 6.27745L17.1706 8.69508C17.2917 8.81616 17.3584 8.97717 17.3584 9.14841C17.3584 9.31964 17.2917 9.48066 17.1706 9.60173L9.60091 17.1714C9.47984 17.2925 9.31882 17.3592 9.14759 17.3592C8.97635 17.3592 8.81534 17.2925 8.69426 17.1714L1.12455 9.60169C0.87457 9.3517 0.87457 8.94497 1.12455 8.69498L8.69426 1.12528C8.81534 1.0042 8.97635 0.9375 9.14759 0.9375C9.31882 0.9375 9.47984 1.0042 9.60091 1.12528L11.7699 3.29423C11.953 3.47728 12.2497 3.47728 12.4328 3.29423C12.6159 3.11119 12.6159 2.81437 12.4328 2.63128L10.2639 0.462375C9.9657 0.164203 9.56927 0 9.14759 0C8.72595 0 8.32952 0.164203 8.03135 0.462375L0.461602 8.03208C-0.153867 8.64759 -0.153867 9.64908 0.461602 10.2646L8.03131 17.8343C8.32948 18.1325 8.7259 18.2967 9.14754 18.2967C9.5119 18.2967 9.85727 18.1738 10.1368 17.9482V22.4214C10.1368 23.2919 10.8449 24 11.7154 24H22.4206C23.291 24 23.9992 23.2919 23.9992 22.4214V11.7162C23.9993 10.8458 23.2911 10.1376 22.4207 10.1376ZM23.0618 22.4214C23.0618 22.7749 22.7741 23.0625 22.4207 23.0625H11.7154C11.362 23.0625 11.0743 22.7749 11.0743 22.4214V17.0238L17.0231 11.0751H22.4207C22.7741 11.0751 23.0618 11.3627 23.0618 11.7162V22.4214Z" fill="white"></path>
      <path d="M16.5 15C15.6729 15 15 15.6729 15 16.5C15 17.3271 15.6729 18 16.5 18C17.3271 18 18 17.3271 18 16.5C18 15.6729 17.3271 15 16.5 15ZM16.5 17.1267C16.1544 17.1267 15.8733 16.8456 15.8733 16.5C15.8733 16.1544 16.1544 15.8733 16.5 15.8733C16.8456 15.8733 17.1267 16.1544 17.1267 16.5C17.1267 16.8456 16.8456 17.1267 16.5 17.1267Z" fill="white"></path>
      <path d="M10.5606 8.43885C9.97556 7.85372 9.02375 7.85372 8.43875 8.43885C7.85375 9.02399 7.85375 9.97602 8.43875 10.5612C8.73127 10.8537 9.11542 11 9.49966 11C9.8838 11 10.2681 10.8537 10.5605 10.5612C10.8439 10.2777 11 9.90084 11 9.50001C11 9.09917 10.8439 8.72227 10.5606 8.43885ZM9.94294 9.94339C9.69854 10.1879 9.30081 10.1879 9.05642 9.94339C8.81198 9.69894 8.81198 9.30112 9.05642 9.05666C9.17862 8.93444 9.33916 8.87328 9.49966 8.87328C9.66015 8.87328 9.82074 8.9344 9.94294 9.05666C10.0613 9.17509 10.1265 9.33252 10.1265 9.50005C10.1266 9.66749 10.0613 9.82496 9.94294 9.94339Z" fill="white"></path>
      <path d="M8.43875 12.4388C7.85375 13.024 7.85375 13.976 8.43875 14.5612C8.73127 14.8537 9.11542 15 9.49966 15C9.8838 15 10.2681 14.8537 10.5605 14.5612C10.8439 14.2777 11 13.9008 11 13.5C11 13.0991 10.8439 12.7222 10.5606 12.4388C9.97561 11.8537 9.02375 11.8537 8.43875 12.4388ZM10.1266 13.5C10.1266 13.6675 10.0614 13.825 9.94294 13.9434C9.69854 14.1879 9.30081 14.1879 9.05642 13.9434C8.81198 13.6989 8.81198 13.3011 9.05642 13.0566C9.17862 12.9344 9.33916 12.8733 9.49966 12.8733C9.66015 12.8733 9.82074 12.9344 9.94294 13.0566C10.0613 13.1751 10.1266 13.3325 10.1266 13.5Z" fill="white"></path>
      <path d="M10.5606 3.43885C9.97556 2.85372 9.02375 2.85372 8.43875 3.43885C7.85375 4.02399 7.85375 4.97602 8.43875 5.56116C8.73127 5.85375 9.11542 6 9.49966 6C9.8838 6 10.2681 5.85366 10.5605 5.56116C10.8439 5.27774 11 4.90084 11 4.50001C11 4.09917 10.8439 3.72227 10.5606 3.43885ZM9.94294 4.94339C9.69854 5.18789 9.30081 5.18789 9.05642 4.94339C8.81198 4.69894 8.81198 4.30112 9.05642 4.05666C9.17862 3.93444 9.33916 3.87328 9.49966 3.87328C9.66015 3.87328 9.82074 3.93439 9.94294 4.05666C10.0613 4.17509 10.1265 4.33252 10.1265 4.50005C10.1266 4.66749 10.0613 4.82496 9.94294 4.94339Z" fill="white"></path>
      <path d="M3.43885 8.43882C2.85372 9.02397 2.85372 9.97601 3.43885 10.5612C3.7314 10.8537 4.11572 11 4.5 11C4.88428 11 5.2686 10.8537 5.56115 10.5612C6.14628 9.97601 6.14628 9.02397 5.56115 8.43882C4.97606 7.85373 4.02399 7.85373 3.43885 8.43882ZM4.94338 9.94338C4.69893 10.1879 4.30111 10.1879 4.05666 9.94338C3.81217 9.69892 3.81217 9.3011 4.05666 9.05664C4.17889 8.93442 4.33946 8.87326 4.5 8.87326C4.66053 8.87326 4.82116 8.93437 4.94334 9.05664C5.18783 9.3011 5.18783 9.69892 4.94338 9.94338Z" fill="white"></path>
      <path d="M12.4388 8.43884C11.8537 9.02399 11.8537 9.97604 12.4388 10.5612C12.7314 10.8538 13.1156 11 13.5 11C13.8842 11 14.2686 10.8537 14.5612 10.5612C15.1463 9.97604 15.1463 9.02399 14.5611 8.43884C13.976 7.85374 13.024 7.8537 12.4388 8.43884ZM13.9434 9.94341C13.6989 10.1879 13.3011 10.188 13.0566 9.94341C12.8122 9.69896 12.8122 9.30113 13.0566 9.05667C13.1789 8.93444 13.3394 8.87328 13.5 8.87328C13.6605 8.87328 13.8212 8.9344 13.9434 9.05667C14.1878 9.30113 14.1878 9.69896 13.9434 9.94341Z" fill="white"></path>
      <path d="M13.5 5C13.7761 5 14 4.77614 14 4.5C14 4.22386 13.7761 4 13.5 4C13.2239 4 13 4.22386 13 4.5C13 4.77614 13.2239 5 13.5 5Z" fill="white"></path>
    </g>
    <defs>
      <clipPath id="clip0_30004_352">
        <rect width="24" height="24" fill="white"></rect>
      </clipPath>
    </defs>
  </symbol>
  <symbol fill="none" xmlns="http://www.w3.org/2000/svg" viewBox="0 0 24 25" id="engFlag">
    <mask id="mask0_100005_4346" maskUnits="userSpaceOnUse" x="0" y="0" width="24" height="25">
      <path d="M12 24.5C18.6274 24.5 24 19.1274 24 12.5C24 5.87258 18.6274 0.5 12 0.5C5.37258 0.5 0 5.87258 0 12.5C0 19.1274 5.37258 24.5 12 24.5Z" fill="white"></path>
    </mask>
    <g mask="url(#mask0_100005_4346)">
      <path d="M0 0.5L0.375 1.53125L0 2.60938V3.6875L1.5 6.21875L0 8.75V10.25L1.5 12.5L0 14.75V16.25L1.5 18.7812L0 21.3125V24.5L1.03125 24.125L2.10938 24.5H3.1875L5.71875 23L8.25 24.5H9.75L12 23L14.25 24.5H15.75L18.2812 23L20.8125 24.5H24L23.625 23.4688L24 22.3906V21.3125L22.5 18.7812L24 16.25V14.75L22.5 12.5L24 10.25V8.75L22.5 6.21875L24 3.6875V0.5L22.9688 0.875L21.8906 0.5H20.8125L18.2812 2L15.75 0.5H14.25L12 2L9.75 0.5H8.25L5.71875 2L3.1875 0.5H0Z" fill="#EEEEEE"></path>
      <path d="M15.75 0.5V5.5625L20.8125 0.5H15.75ZM24 3.6875L18.9375 8.75H24V3.6875ZM0 8.75H5.0625L0 3.6875V8.75ZM3.1875 0.5L8.25 5.5625V0.5H3.1875ZM8.25 24.5V19.4375L3.1875 24.5H8.25ZM0 21.3125L5.0625 16.25H0V21.3125ZM24 16.25H18.9375L24 21.3125V16.25ZM20.8125 24.5L15.75 19.4375V24.5H20.8125Z" fill="#0052B4"></path>
      <path d="M0 0.5V2.60938L6.14062 8.75H8.25L0 0.5ZM9.75 0.5V10.25H0V14.75H9.75V24.5H14.25V14.75H24V10.25H14.25V0.5H9.75ZM21.8906 0.5L15.75 6.64062V8.75L24 0.5H21.8906ZM8.25 16.25L0 24.5H2.10938L8.25 18.3594V16.25ZM15.75 16.25L24 24.5V22.3906L17.8594 16.25H15.75Z" fill="#D80027"></path>
    </g>
  </symbol>
  <symbol fill="none" xmlns="http://www.w3.org/2000/svg" viewBox="0 0 30 12" id="listElement">
    <rect opacity="0.4" y="6" width="8" height="1" fill="url(#paint0_linear_86003_4850)"></rect>
    <rect opacity="0.4" x="22" y="6" width="8" height="1" fill="url(#paint1_linear_86003_4850)"></rect>
    <rect x="15" y="0.707107" width="6.99997" height="7.00001" transform="rotate(45 15 0.707107)" stroke="#FFF72E"></rect>
    <rect x="15" y="4.24264" width="1.99998" height="2.00002" transform="rotate(45 15 4.24264)" fill="#FFF72E"></rect>
    <defs>
      <linearGradient id="paint0_linear_86003_4850" x1="0" y1="6.5" x2="8" y2="6.5" gradientUnits="userSpaceOnUse">
        <stop stop-opacity="0"></stop>
        <stop offset="1" stop-color="#FFFAF3"></stop>
      </linearGradient>
      <linearGradient id="paint1_linear_86003_4850" x1="30" y1="6.5" x2="22" y2="6.5" gradientUnits="userSpaceOnUse">
        <stop stop-opacity="0"></stop>
        <stop offset="1" stop-color="#FFFAF3"></stop>
      </linearGradient>
    </defs>
  </symbol>
</svg>